/* XPM */
static char * dosemu_xpm[] = {
"64 48 22 1",
" 	c none  s mask",
".	c #000000000000",
"X	c #B2CA6595C30B",
"o	c #C71BC71BF7DE",
"O	c #0820F7DE0820",
"+	c #D34C75D64924",
"@	c #9A69DF7D9248",
"#	c #F7DEF7DEF7DE",
"$	c #6185BAEA2492",
"%	c #555555555555",
"&	c #4D344D34F3CE",
"*	c #4514AAAAE38D",
"=	c #08200820F7DE",
"-	c #FFFF65956595",
";	c #FFFFBAEA30C2",
":	c #FFFFFFFF0000",
">	c #FFFF00000000",
",	c #8617FFFF8E38",
"<	c #49249A69FFFF",
"1	c #FFFFFFFFFFFF",
"2	c #0000FFFF0000",
"3	c #FFFF0000FFFF",
"                                                                ",
"          ....................................................  ",
"          .XXoooooooooooooooooooooooooooooO+O+OOoX@oooooooooo.  ",
"          .+o####o#####o#o###o@#o#o#o##o##O$OOOOoo@o#o#@#####.  ",
"          .%&&&&&&&&&&&&&&&oo&&&*o=&&&&&&*#############o#oooo.  ",
"          .%&&*&*@@XXX===================&o$OOOOOOOOOOO@o%ooo.  ",
"          .X&&=&&&=&&&&&&&===============&oo###########oo%ooo.  ",
"          .X&============================&oo###########oo%ooo.  ",
"          .%&============================&o############o@%ooo.  ",
"          .X&&&&&&X@@X===================&o##o@o#######oo%ooo.  ",
"          .X&============================&ooo@#@#o#####oo%ooo.  ",
"          .%&&&=X@X@&&&=X@@==============&oooo#########o@%ooo.  ",
"          .%&============================&o############o@%ooo.  ",
"          .X&===&&=======================&oo###########oo%ooo.  ",
"          .%&============================&o############oo%ooo.  ",
"          .%&==&&&&&&&&==================&o############oo%ooo.  ",
"          .X&==&@&@X@XX@o&X==============&oo@@#########oo%ooo.  ",
"          .X&==&@=@&@X&==================&ooo@#ooooXooooo%ooo.  ",
"          .%&==&&=&&&X=&@@X=&=&&==.======&o##o#########oo%ooo.  ",
"          .X&===..........====&=..-.=====&o############oo%ooo.  ",
"          .X&...;;;;;;;.;.=====.---.=====&o@@@@@@oooooooX%ooo.  ",
"          ...;;;;;;;;..;;.&&&..-----.@&&&==......%%%%%%%%%ooo.  ",
"         .......;....;;;;.&&..------.&&&==...====*%oooooooooo.  ",
"       ..:::::::.::.;;;;;.=.>>.------.===.,,..===&%oooooooooo.  ",
"      .:::::..:::::.;;;;.==.>>.------.==.,,,,,..=&%oooooooooo.  ",
"     .::::..;;..:::.;;..=...>>.-------.=.,,,,,,,.*%oooooooooo.  ",
"    .::::.;;;;.=..:.;.=&.<<..>>.------..,,,,,,,,.*%oooooooooo.  ",
"    .:::.;;;;;.==.:..=..<<.<.>>.------.,,,,,,,,,.=%oooooooooo.  ",
"   .::::.;;;;;.%.%.%%.....<<.>>..----....,,,,,,,.%%oooooooooo.  ",
"   .:::.;;;;;;.oooooo.111.<.o.>>.---.222..,,,,,,.oooooooooooo.  ",
"  .::::.;;;;;;.oooooo.111..oo.>>.----.2222..,,,,.oooooooooooo.  ",
"  .::::.;;;;;;.##o###.111.#o#.>>.-----..2222..,.########o##o#.  ",
"  .::::.;;;;;;;................>>.----....2222................  ",
"  .::::.;;;;;;;;....   .33..  .>>.----. .,..222.                ",
"  .::::.;;;;;;;;;;;. ..33.3.  .>>..--. .,,..222.                ",
"  .::::.;;;;;;;;... .333.33.   .>>.--. .,.2222.                 ",
"   .::::.;;;;;..::......333.   .>>.-. ...222..                  ",
"   .:::::.....:::. .111.33.    .>>.-..2222..                    ",
"    .:::::::::::.  .111.3.      .>>. .22..                      ",
"     ..:::::::..   .111..       .>>.  ..                        ",
"       .......     .....         ..                             ",
"                                                                ",
"                                                                ",
"                                                                ",
"                                                                ",
"                                                                ",
"                                                                ",
"                                                                "};
