STARTFONT 2.1
FONT -xos4-Terminus-Bold-R-Normal--20-200-72-72-C-100-IBM-CP850
SIZE 20 72 72
FONTBOUNDINGBOX 10 20 0 -4

STARTPROPERTIES 22
FOUNDRY "xos4"
FAMILY_NAME "Terminus"
WEIGHT_NAME "Bold"
SLANT "R"
SETWIDTH_NAME "Normal"
ADD_STYLE_NAME ""
PIXEL_SIZE 20
POINT_SIZE 200
RESOLUTION_X 72
RESOLUTION_Y 72
SPACING "C"
AVERAGE_WIDTH 100
CHARSET_REGISTRY "IBM"
CHARSET_ENCODING "CP850"
MIN_SPACE 0
COPYRIGHT "Copyright (C) 2005 Dimitar Toshkov Zhekov"
WEIGHT 10
X_HEIGHT 16
QUAD_WIDTH 10
DEFAULT_CHAR 32
FONT_DESCENT 4
FONT_ASCENT 16
ENDPROPERTIES

CHARS 253

STARTCHAR uni0000
ENCODING 0
SWIDTH 500 0
DWIDTH 10 0
BBX 10 20 0 -4
BITMAP
0000
0000
0000
7380
6180
6180
0000
0000
6180
6180
6180
0000
0000
6180
6180
7380
0000
0000
0000
0000
ENDCHAR

STARTCHAR smileface
ENCODING 1
SWIDTH 500 0
DWIDTH 10 0
BBX 10 20 0 -4
BITMAP
0000
0000
0000
7F80
8040
8040
B340
B340
8040
8040
BF40
9E40
8040
8040
8040
7F80
0000
0000
0000
0000
ENDCHAR

STARTCHAR invsmileface
ENCODING 2
SWIDTH 500 0
DWIDTH 10 0
BBX 10 20 0 -4
BITMAP
0000
0000
0000
7F80
FFC0
FFC0
CCC0
CCC0
FFC0
FFC0
C0C0
E1C0
FFC0
FFC0
FFC0
7F80
0000
0000
0000
0000
ENDCHAR

STARTCHAR heart
ENCODING 3
SWIDTH 500 0
DWIDTH 10 0
BBX 10 20 0 -4
BITMAP
0000
0000
0000
0000
0000
7380
F3C0
FFC0
FFC0
FFC0
FFC0
7F80
3F00
1E00
0C00
0000
0000
0000
0000
0000
ENDCHAR

STARTCHAR diamond
ENCODING 4
SWIDTH 500 0
DWIDTH 10 0
BBX 10 20 0 -4
BITMAP
0000
0000
0000
0000
0000
0C00
1E00
3F00
7F80
FFC0
FFC0
7F80
3F00
1E00
0C00
0000
0000
0000
0000
0000
ENDCHAR

STARTCHAR club
ENCODING 5
SWIDTH 500 0
DWIDTH 10 0
BBX 10 20 0 -4
BITMAP
0000
0000
0000
1E00
3F00
3F00
1E00
0C00
6D80
FFC0
FFC0
FFC0
FFC0
6D80
0C00
3F00
0000
0000
0000
0000
ENDCHAR

STARTCHAR spade
ENCODING 6
SWIDTH 500 0
DWIDTH 10 0
BBX 10 20 0 -4
BITMAP
0000
0000
0000
0C00
0C00
1E00
3F00
7F80
FFC0
FFC0
FFC0
FFC0
6D80
0C00
0C00
3F00
0000
0000
0000
0000
ENDCHAR

STARTCHAR periodcentered
ENCODING 7
SWIDTH 500 0
DWIDTH 10 0
BBX 10 20 0 -4
BITMAP
0000
0000
0000
0000
0000
0000
0000
0000
1C00
1C00
1C00
0000
0000
0000
0000
0000
0000
0000
0000
0000
ENDCHAR

STARTCHAR invbullet
ENCODING 8
SWIDTH 500 0
DWIDTH 10 0
BBX 10 20 0 -4
BITMAP
FFC0
FFC0
FFC0
FFC0
FFC0
FFC0
FFC0
FFC0
F3C0
E1C0
E1C0
F3C0
FFC0
FFC0
FFC0
FFC0
FFC0
FFC0
FFC0
FFC0
ENDCHAR

STARTCHAR circle
ENCODING 9
SWIDTH 500 0
DWIDTH 10 0
BBX 10 20 0 -4
BITMAP
0000
0000
0000
0000
0000
0000
0000
1E00
3300
2100
2100
3300
1E00
0000
0000
0000
0000
0000
0000
0000
ENDCHAR

STARTCHAR invcircle
ENCODING 10
SWIDTH 500 0
DWIDTH 10 0
BBX 10 20 0 -4
BITMAP
FFC0
FFC0
FFC0
FFC0
FFC0
FFC0
FFC0
E1C0
CCC0
DEC0
DEC0
CCC0
E1C0
FFC0
FFC0
FFC0
FFC0
FFC0
FFC0
FFC0
ENDCHAR

STARTCHAR male
ENCODING 11
SWIDTH 500 0
DWIDTH 10 0
BBX 10 20 0 -4
BITMAP
0000
0000
0000
0F80
0380
0680
0C80
1880
3E00
6300
6300
6300
6300
6300
6300
3E00
0000
0000
0000
0000
ENDCHAR

STARTCHAR female
ENCODING 12
SWIDTH 500 0
DWIDTH 10 0
BBX 10 20 0 -4
BITMAP
0000
0000
0000
3F00
6180
6180
6180
6180
6180
6180
3F00
0C00
0C00
7F80
0C00
0C00
0000
0000
0000
0000
ENDCHAR

STARTCHAR musicalnote
ENCODING 13
SWIDTH 500 0
DWIDTH 10 0
BBX 10 20 0 -4
BITMAP
0000
0000
0000
3F80
3180
3180
3F80
3000
3000
3000
3000
3000
3000
3000
F000
E000
0000
0000
0000
0000
ENDCHAR

STARTCHAR sun
ENCODING 15
SWIDTH 500 0
DWIDTH 10 0
BBX 10 20 0 -4
BITMAP
0000
0000
0000
0C00
0C00
0C00
CCC0
6D80
3F00
F3C0
3F00
6D80
CCC0
0C00
0C00
0C00
0000
0000
0000
0000
ENDCHAR

STARTCHAR uni25B6
ENCODING 16
SWIDTH 500 0
DWIDTH 10 0
BBX 10 20 0 -4
BITMAP
0000
0000
0000
4000
6000
7000
7800
7C00
7E00
7F00
7F00
7E00
7C00
7800
7000
6000
4000
0000
0000
0000
ENDCHAR

STARTCHAR uni25C0
ENCODING 17
SWIDTH 500 0
DWIDTH 10 0
BBX 10 20 0 -4
BITMAP
0000
0000
0000
0100
0300
0700
0F00
1F00
3F00
7F00
7F00
3F00
1F00
0F00
0700
0300
0100
0000
0000
0000
ENDCHAR

STARTCHAR arrowupdn
ENCODING 18
SWIDTH 500 0
DWIDTH 10 0
BBX 10 20 0 -4
BITMAP
0000
0000
0000
0C00
1E00
3F00
7F80
0C00
0C00
0C00
0C00
0C00
7F80
3F00
1E00
0C00
0000
0000
0000
0000
ENDCHAR

STARTCHAR exclamdbl
ENCODING 19
SWIDTH 500 0
DWIDTH 10 0
BBX 10 20 0 -4
BITMAP
0000
0000
0000
3300
3300
3300
3300
3300
3300
3300
3300
3300
0000
0000
3300
3300
0000
0000
0000
0000
ENDCHAR

STARTCHAR filledrect
ENCODING 22
SWIDTH 500 0
DWIDTH 10 0
BBX 10 20 0 -4
BITMAP
0000
0000
0000
0000
0000
0000
0000
0000
0000
0000
0000
FF80
FF80
FF80
FF80
FF80
0000
0000
0000
0000
ENDCHAR

STARTCHAR arrowupdnbse
ENCODING 23
SWIDTH 500 0
DWIDTH 10 0
BBX 10 20 0 -4
BITMAP
0000
0000
0000
0C00
1E00
3F00
7F80
0C00
0C00
0C00
0C00
0C00
7F80
3F00
1E00
0C00
7F80
0000
0000
0000
ENDCHAR

STARTCHAR arrowup
ENCODING 24
SWIDTH 500 0
DWIDTH 10 0
BBX 10 20 0 -4
BITMAP
0000
0000
0000
0C00
1E00
3F00
7F80
0C00
0C00
0C00
0C00
0C00
0C00
0C00
0C00
0C00
0000
0000
0000
0000
ENDCHAR

STARTCHAR arrowdown
ENCODING 25
SWIDTH 500 0
DWIDTH 10 0
BBX 10 20 0 -4
BITMAP
0000
0000
0000
0C00
0C00
0C00
0C00
0C00
0C00
0C00
0C00
0C00
7F80
3F00
1E00
0C00
0000
0000
0000
0000
ENDCHAR

STARTCHAR arrowright
ENCODING 26
SWIDTH 500 0
DWIDTH 10 0
BBX 10 20 0 -4
BITMAP
0000
0000
0000
0000
0000
0000
0400
0600
0700
FF80
FF80
0700
0600
0400
0000
0000
0000
0000
0000
0000
ENDCHAR

STARTCHAR arrowleft
ENCODING 27
SWIDTH 500 0
DWIDTH 10 0
BBX 10 20 0 -4
BITMAP
0000
0000
0000
0000
0000
0000
1000
3000
7000
FF80
FF80
7000
3000
1000
0000
0000
0000
0000
0000
0000
ENDCHAR

STARTCHAR orthogonal
ENCODING 28
SWIDTH 500 0
DWIDTH 10 0
BBX 10 20 0 -4
BITMAP
0000
0000
0000
0000
0000
0000
6000
6000
6000
6000
6000
6000
7F80
0000
0000
0000
0000
0000
0000
0000
ENDCHAR

STARTCHAR arrowboth
ENCODING 29
SWIDTH 500 0
DWIDTH 10 0
BBX 10 20 0 -4
BITMAP
0000
0000
0000
0000
0000
0000
1200
3300
7380
FFC0
FFC0
7380
3300
1200
0000
0000
0000
0000
0000
0000
ENDCHAR

STARTCHAR triagup
ENCODING 30
SWIDTH 500 0
DWIDTH 10 0
BBX 10 20 0 -4
BITMAP
0000
0000
0000
0000
0000
0C00
0C00
1E00
1E00
3F00
3F00
7F80
7F80
FFC0
FFC0
0000
0000
0000
0000
0000
ENDCHAR

STARTCHAR triagdn
ENCODING 31
SWIDTH 500 0
DWIDTH 10 0
BBX 10 20 0 -4
BITMAP
0000
0000
0000
0000
0000
FFC0
FFC0
7F80
7F80
3F00
3F00
1E00
1E00
0C00
0C00
0000
0000
0000
0000
0000
ENDCHAR

STARTCHAR space
ENCODING 32
SWIDTH 500 0
DWIDTH 10 0
BBX 10 20 0 -4
BITMAP
0000
0000
0000
0000
0000
0000
0000
0000
0000
0000
0000
0000
0000
0000
0000
0000
0000
0000
0000
0000
ENDCHAR

STARTCHAR exclam
ENCODING 33
SWIDTH 500 0
DWIDTH 10 0
BBX 10 20 0 -4
BITMAP
0000
0000
0000
0C00
0C00
0C00
0C00
0C00
0C00
0C00
0C00
0C00
0000
0000
0C00
0C00
0000
0000
0000
0000
ENDCHAR

STARTCHAR quotedbl
ENCODING 34
SWIDTH 500 0
DWIDTH 10 0
BBX 10 20 0 -4
BITMAP
0000
3300
3300
3300
3300
0000
0000
0000
0000
0000
0000
0000
0000
0000
0000
0000
0000
0000
0000
0000
ENDCHAR

STARTCHAR numbersign
ENCODING 35
SWIDTH 500 0
DWIDTH 10 0
BBX 10 20 0 -4
BITMAP
0000
0000
0000
3300
3300
3300
3300
7F80
3300
3300
3300
7F80
3300
3300
3300
3300
0000
0000
0000
0000
ENDCHAR

STARTCHAR dollar
ENCODING 36
SWIDTH 500 0
DWIDTH 10 0
BBX 10 20 0 -4
BITMAP
0000
0000
0C00
0C00
3F00
6D80
6C00
6C00
6C00
3F00
0D80
0D80
0D80
6D80
3F00
0C00
0C00
0000
0000
0000
ENDCHAR

STARTCHAR percent
ENCODING 37
SWIDTH 500 0
DWIDTH 10 0
BBX 10 20 0 -4
BITMAP
0000
0000
0000
0000
7300
5300
7600
0600
0C00
0C00
1800
1800
3000
3700
6500
6700
0000
0000
0000
0000
ENDCHAR

STARTCHAR ampersand
ENCODING 38
SWIDTH 500 0
DWIDTH 10 0
BBX 10 20 0 -4
BITMAP
0000
0000
0000
3C00
6600
6600
6600
3C00
1800
3C80
6780
C300
C300
C300
6780
3C80
0000
0000
0000
0000
ENDCHAR

STARTCHAR quotesingle
ENCODING 39
SWIDTH 500 0
DWIDTH 10 0
BBX 10 20 0 -4
BITMAP
0000
0C00
0C00
0C00
1800
0000
0000
0000
0000
0000
0000
0000
0000
0000
0000
0000
0000
0000
0000
0000
ENDCHAR

STARTCHAR parenleft
ENCODING 40
SWIDTH 500 0
DWIDTH 10 0
BBX 10 20 0 -4
BITMAP
0000
0000
0000
0600
0C00
0C00
1800
1800
1800
1800
1800
1800
1800
0C00
0C00
0600
0000
0000
0000
0000
ENDCHAR

STARTCHAR parenright
ENCODING 41
SWIDTH 500 0
DWIDTH 10 0
BBX 10 20 0 -4
BITMAP
0000
0000
0000
1800
0C00
0C00
0600
0600
0600
0600
0600
0600
0600
0C00
0C00
1800
0000
0000
0000
0000
ENDCHAR

STARTCHAR asterisk
ENCODING 42
SWIDTH 500 0
DWIDTH 10 0
BBX 10 20 0 -4
BITMAP
0000
0000
0000
0000
0000
0000
6300
3600
1C00
FF80
1C00
3600
6300
0000
0000
0000
0000
0000
0000
0000
ENDCHAR

STARTCHAR plus
ENCODING 43
SWIDTH 500 0
DWIDTH 10 0
BBX 10 20 0 -4
BITMAP
0000
0000
0000
0000
0000
0000
0C00
0C00
0C00
7F80
0C00
0C00
0C00
0000
0000
0000
0000
0000
0000
0000
ENDCHAR

STARTCHAR comma
ENCODING 44
SWIDTH 500 0
DWIDTH 10 0
BBX 10 20 0 -4
BITMAP
0000
0000
0000
0000
0000
0000
0000
0000
0000
0000
0000
0000
0000
0C00
0C00
0C00
1800
0000
0000
0000
ENDCHAR

STARTCHAR hyphen
ENCODING 45
SWIDTH 500 0
DWIDTH 10 0
BBX 10 20 0 -4
BITMAP
0000
0000
0000
0000
0000
0000
0000
0000
0000
7F80
0000
0000
0000
0000
0000
0000
0000
0000
0000
0000
ENDCHAR

STARTCHAR period
ENCODING 46
SWIDTH 500 0
DWIDTH 10 0
BBX 10 20 0 -4
BITMAP
0000
0000
0000
0000
0000
0000
0000
0000
0000
0000
0000
0000
0000
0000
0C00
0C00
0000
0000
0000
0000
ENDCHAR

STARTCHAR slash
ENCODING 47
SWIDTH 500 0
DWIDTH 10 0
BBX 10 20 0 -4
BITMAP
0000
0000
0000
0000
0300
0300
0600
0600
0C00
0C00
1800
1800
3000
3000
6000
6000
0000
0000
0000
0000
ENDCHAR

STARTCHAR zero
ENCODING 48
SWIDTH 500 0
DWIDTH 10 0
BBX 10 20 0 -4
BITMAP
0000
0000
0000
3F00
6180
6180
6180
6380
6780
6D80
7980
7180
6180
6180
6180
3F00
0000
0000
0000
0000
ENDCHAR

STARTCHAR one
ENCODING 49
SWIDTH 500 0
DWIDTH 10 0
BBX 10 20 0 -4
BITMAP
0000
0000
0000
0C00
1C00
3C00
0C00
0C00
0C00
0C00
0C00
0C00
0C00
0C00
0C00
3F00
0000
0000
0000
0000
ENDCHAR

STARTCHAR two
ENCODING 50
SWIDTH 500 0
DWIDTH 10 0
BBX 10 20 0 -4
BITMAP
0000
0000
0000
3F00
6180
6180
6180
0180
0180
0300
0600
0C00
1800
3000
6000
7F80
0000
0000
0000
0000
ENDCHAR

STARTCHAR three
ENCODING 51
SWIDTH 500 0
DWIDTH 10 0
BBX 10 20 0 -4
BITMAP
0000
0000
0000
3F00
6180
6180
0180
0180
0180
1F00
0180
0180
0180
6180
6180
3F00
0000
0000
0000
0000
ENDCHAR

STARTCHAR four
ENCODING 52
SWIDTH 500 0
DWIDTH 10 0
BBX 10 20 0 -4
BITMAP
0000
0000
0000
0180
0380
0780
0D80
1980
3180
6180
6180
6180
7F80
0180
0180
0180
0000
0000
0000
0000
ENDCHAR

STARTCHAR five
ENCODING 53
SWIDTH 500 0
DWIDTH 10 0
BBX 10 20 0 -4
BITMAP
0000
0000
0000
7F80
6000
6000
6000
6000
7F00
0180
0180
0180
0180
6180
6180
3F00
0000
0000
0000
0000
ENDCHAR

STARTCHAR six
ENCODING 54
SWIDTH 500 0
DWIDTH 10 0
BBX 10 20 0 -4
BITMAP
0000
0000
0000
1F00
3000
6000
6000
6000
7F00
6180
6180
6180
6180
6180
6180
3F00
0000
0000
0000
0000
ENDCHAR

STARTCHAR seven
ENCODING 55
SWIDTH 500 0
DWIDTH 10 0
BBX 10 20 0 -4
BITMAP
0000
0000
0000
7F80
6180
6180
0180
0300
0300
0600
0600
0C00
0C00
0C00
0C00
0C00
0000
0000
0000
0000
ENDCHAR

STARTCHAR eight
ENCODING 56
SWIDTH 500 0
DWIDTH 10 0
BBX 10 20 0 -4
BITMAP
0000
0000
0000
3F00
6180
6180
6180
6180
6180
3F00
6180
6180
6180
6180
6180
3F00
0000
0000
0000
0000
ENDCHAR

STARTCHAR nine
ENCODING 57
SWIDTH 500 0
DWIDTH 10 0
BBX 10 20 0 -4
BITMAP
0000
0000
0000
3F00
6180
6180
6180
6180
6180
6180
3F80
0180
0180
0180
0300
3E00
0000
0000
0000
0000
ENDCHAR

STARTCHAR colon
ENCODING 58
SWIDTH 500 0
DWIDTH 10 0
BBX 10 20 0 -4
BITMAP
0000
0000
0000
0000
0000
0000
0000
0C00
0C00
0000
0000
0000
0000
0C00
0C00
0000
0000
0000
0000
0000
ENDCHAR

STARTCHAR semicolon
ENCODING 59
SWIDTH 500 0
DWIDTH 10 0
BBX 10 20 0 -4
BITMAP
0000
0000
0000
0000
0000
0000
0000
0C00
0C00
0000
0000
0000
0000
0C00
0C00
0C00
1800
0000
0000
0000
ENDCHAR

STARTCHAR less
ENCODING 60
SWIDTH 500 0
DWIDTH 10 0
BBX 10 20 0 -4
BITMAP
0000
0000
0000
0180
0300
0600
0C00
1800
3000
6000
3000
1800
0C00
0600
0300
0180
0000
0000
0000
0000
ENDCHAR

STARTCHAR equal
ENCODING 61
SWIDTH 500 0
DWIDTH 10 0
BBX 10 20 0 -4
BITMAP
0000
0000
0000
0000
0000
0000
0000
7F80
0000
0000
0000
7F80
0000
0000
0000
0000
0000
0000
0000
0000
ENDCHAR

STARTCHAR greater
ENCODING 62
SWIDTH 500 0
DWIDTH 10 0
BBX 10 20 0 -4
BITMAP
0000
0000
0000
6000
3000
1800
0C00
0600
0300
0180
0300
0600
0C00
1800
3000
6000
0000
0000
0000
0000
ENDCHAR

STARTCHAR question
ENCODING 63
SWIDTH 500 0
DWIDTH 10 0
BBX 10 20 0 -4
BITMAP
0000
0000
0000
1E00
3300
6180
6180
0180
0300
0600
0C00
0C00
0000
0000
0C00
0C00
0000
0000
0000
0000
ENDCHAR

STARTCHAR at
ENCODING 64
SWIDTH 500 0
DWIDTH 10 0
BBX 10 20 0 -4
BITMAP
0000
0000
0000
7F00
C180
C180
CF80
D980
D980
D980
D980
D980
CF80
C000
C000
7F80
0000
0000
0000
0000
ENDCHAR

STARTCHAR A
ENCODING 65
SWIDTH 500 0
DWIDTH 10 0
BBX 10 20 0 -4
BITMAP
0000
0000
0000
3F00
6180
6180
6180
6180
6180
7F80
6180
6180
6180
6180
6180
6180
0000
0000
0000
0000
ENDCHAR

STARTCHAR B
ENCODING 66
SWIDTH 500 0
DWIDTH 10 0
BBX 10 20 0 -4
BITMAP
0000
0000
0000
7F00
6180
6180
6180
6180
7F00
6180
6180
6180
6180
6180
6180
7F00
0000
0000
0000
0000
ENDCHAR

STARTCHAR C
ENCODING 67
SWIDTH 500 0
DWIDTH 10 0
BBX 10 20 0 -4
BITMAP
0000
0000
0000
3F00
6180
6180
6000
6000
6000
6000
6000
6000
6000
6180
6180
3F00
0000
0000
0000
0000
ENDCHAR

STARTCHAR D
ENCODING 68
SWIDTH 500 0
DWIDTH 10 0
BBX 10 20 0 -4
BITMAP
0000
0000
0000
7E00
6300
6180
6180
6180
6180
6180
6180
6180
6180
6180
6300
7E00
0000
0000
0000
0000
ENDCHAR

STARTCHAR E
ENCODING 69
SWIDTH 500 0
DWIDTH 10 0
BBX 10 20 0 -4
BITMAP
0000
0000
0000
7F80
6000
6000
6000
6000
6000
7E00
6000
6000
6000
6000
6000
7F80
0000
0000
0000
0000
ENDCHAR

STARTCHAR F
ENCODING 70
SWIDTH 500 0
DWIDTH 10 0
BBX 10 20 0 -4
BITMAP
0000
0000
0000
7F80
6000
6000
6000
6000
6000
7E00
6000
6000
6000
6000
6000
6000
0000
0000
0000
0000
ENDCHAR

STARTCHAR G
ENCODING 71
SWIDTH 500 0
DWIDTH 10 0
BBX 10 20 0 -4
BITMAP
0000
0000
0000
3F00
6180
6180
6000
6000
6000
6780
6180
6180
6180
6180
6180
3F00
0000
0000
0000
0000
ENDCHAR

STARTCHAR H
ENCODING 72
SWIDTH 500 0
DWIDTH 10 0
BBX 10 20 0 -4
BITMAP
0000
0000
0000
6180
6180
6180
6180
6180
6180
7F80
6180
6180
6180
6180
6180
6180
0000
0000
0000
0000
ENDCHAR

STARTCHAR I
ENCODING 73
SWIDTH 500 0
DWIDTH 10 0
BBX 10 20 0 -4
BITMAP
0000
0000
0000
1E00
0C00
0C00
0C00
0C00
0C00
0C00
0C00
0C00
0C00
0C00
0C00
1E00
0000
0000
0000
0000
ENDCHAR

STARTCHAR J
ENCODING 74
SWIDTH 500 0
DWIDTH 10 0
BBX 10 20 0 -4
BITMAP
0000
0000
0000
0780
0300
0300
0300
0300
0300
0300
0300
0300
6300
6300
6300
3E00
0000
0000
0000
0000
ENDCHAR

STARTCHAR K
ENCODING 75
SWIDTH 500 0
DWIDTH 10 0
BBX 10 20 0 -4
BITMAP
0000
0000
0000
6180
6180
6300
6600
6C00
7800
7000
7800
6C00
6600
6300
6180
6180
0000
0000
0000
0000
ENDCHAR

STARTCHAR L
ENCODING 76
SWIDTH 500 0
DWIDTH 10 0
BBX 10 20 0 -4
BITMAP
0000
0000
0000
6000
6000
6000
6000
6000
6000
6000
6000
6000
6000
6000
6000
7F80
0000
0000
0000
0000
ENDCHAR

STARTCHAR M
ENCODING 77
SWIDTH 500 0
DWIDTH 10 0
BBX 10 20 0 -4
BITMAP
0000
0000
0000
8080
C180
E380
F780
DD80
C980
C180
C180
C180
C180
C180
C180
C180
0000
0000
0000
0000
ENDCHAR

STARTCHAR N
ENCODING 78
SWIDTH 500 0
DWIDTH 10 0
BBX 10 20 0 -4
BITMAP
0000
0000
0000
6180
6180
6180
6180
7180
7980
6D80
6780
6380
6180
6180
6180
6180
0000
0000
0000
0000
ENDCHAR

STARTCHAR O
ENCODING 79
SWIDTH 500 0
DWIDTH 10 0
BBX 10 20 0 -4
BITMAP
0000
0000
0000
3F00
6180
6180
6180
6180
6180
6180
6180
6180
6180
6180
6180
3F00
0000
0000
0000
0000
ENDCHAR

STARTCHAR P
ENCODING 80
SWIDTH 500 0
DWIDTH 10 0
BBX 10 20 0 -4
BITMAP
0000
0000
0000
7F00
6180
6180
6180
6180
6180
7F00
6000
6000
6000
6000
6000
6000
0000
0000
0000
0000
ENDCHAR

STARTCHAR Q
ENCODING 81
SWIDTH 500 0
DWIDTH 10 0
BBX 10 20 0 -4
BITMAP
0000
0000
0000
3F00
6180
6180
6180
6180
6180
6180
6180
6180
6180
6180
6780
3F00
0300
0180
0000
0000
ENDCHAR

STARTCHAR R
ENCODING 82
SWIDTH 500 0
DWIDTH 10 0
BBX 10 20 0 -4
BITMAP
0000
0000
0000
7F00
6180
6180
6180
6180
6180
7F00
7800
6C00
6600
6300
6180
6180
0000
0000
0000
0000
ENDCHAR

STARTCHAR S
ENCODING 83
SWIDTH 500 0
DWIDTH 10 0
BBX 10 20 0 -4
BITMAP
0000
0000
0000
3F00
6180
6180
6000
6000
6000
3F00
0180
0180
0180
6180
6180
3F00
0000
0000
0000
0000
ENDCHAR

STARTCHAR T
ENCODING 84
SWIDTH 500 0
DWIDTH 10 0
BBX 10 20 0 -4
BITMAP
0000
0000
0000
7F80
0C00
0C00
0C00
0C00
0C00
0C00
0C00
0C00
0C00
0C00
0C00
0C00
0000
0000
0000
0000
ENDCHAR

STARTCHAR U
ENCODING 85
SWIDTH 500 0
DWIDTH 10 0
BBX 10 20 0 -4
BITMAP
0000
0000
0000
6180
6180
6180
6180
6180
6180
6180
6180
6180
6180
6180
6180
3F00
0000
0000
0000
0000
ENDCHAR

STARTCHAR V
ENCODING 86
SWIDTH 500 0
DWIDTH 10 0
BBX 10 20 0 -4
BITMAP
0000
0000
0000
6180
6180
6180
6180
6180
3300
3300
3300
3300
1E00
1E00
0C00
0C00
0000
0000
0000
0000
ENDCHAR

STARTCHAR W
ENCODING 87
SWIDTH 500 0
DWIDTH 10 0
BBX 10 20 0 -4
BITMAP
0000
0000
0000
C180
C180
C180
C180
C180
C180
C180
C980
DD80
F780
E380
C180
8080
0000
0000
0000
0000
ENDCHAR

STARTCHAR X
ENCODING 88
SWIDTH 500 0
DWIDTH 10 0
BBX 10 20 0 -4
BITMAP
0000
0000
0000
6180
6180
6180
3300
3300
1E00
0C00
1E00
3300
3380
6180
6180
6180
0000
0000
0000
0000
ENDCHAR

STARTCHAR Y
ENCODING 89
SWIDTH 500 0
DWIDTH 10 0
BBX 10 20 0 -4
BITMAP
0000
0000
0000
6180
6180
6180
3300
3300
3300
1E00
0C00
0C00
0C00
0C00
0C00
0C00
0000
0000
0000
0000
ENDCHAR

STARTCHAR Z
ENCODING 90
SWIDTH 500 0
DWIDTH 10 0
BBX 10 20 0 -4
BITMAP
0000
0000
0000
7F80
0180
0180
0180
0300
0600
0C00
1800
3000
6000
6000
6000
7F80
0000
0000
0000
0000
ENDCHAR

STARTCHAR bracketleft
ENCODING 91
SWIDTH 500 0
DWIDTH 10 0
BBX 10 20 0 -4
BITMAP
0000
0000
0000
1E00
1800
1800
1800
1800
1800
1800
1800
1800
1800
1800
1800
1E00
0000
0000
0000
0000
ENDCHAR

STARTCHAR backslash
ENCODING 92
SWIDTH 500 0
DWIDTH 10 0
BBX 10 20 0 -4
BITMAP
0000
0000
0000
0000
6000
6000
3000
3000
1800
1800
0C00
0C00
0600
0600
0300
0300
0000
0000
0000
0000
ENDCHAR

STARTCHAR bracketright
ENCODING 93
SWIDTH 500 0
DWIDTH 10 0
BBX 10 20 0 -4
BITMAP
0000
0000
0000
1E00
0600
0600
0600
0600
0600
0600
0600
0600
0600
0600
0600
1E00
0000
0000
0000
0000
ENDCHAR

STARTCHAR asciicircum
ENCODING 94
SWIDTH 500 0
DWIDTH 10 0
BBX 10 20 0 -4
BITMAP
0000
0C00
1E00
3300
6180
0000
0000
0000
0000
0000
0000
0000
0000
0000
0000
0000
0000
0000
0000
0000
ENDCHAR

STARTCHAR underscore
ENCODING 95
SWIDTH 500 0
DWIDTH 10 0
BBX 10 20 0 -4
BITMAP
0000
0000
0000
0000
0000
0000
0000
0000
0000
0000
0000
0000
0000
0000
0000
0000
0000
7F80
0000
0000
ENDCHAR

STARTCHAR grave
ENCODING 96
SWIDTH 500 0
DWIDTH 10 0
BBX 10 20 0 -4
BITMAP
0000
1800
1800
1800
0C00
0000
0000
0000
0000
0000
0000
0000
0000
0000
0000
0000
0000
0000
0000
0000
ENDCHAR

STARTCHAR a
ENCODING 97
SWIDTH 500 0
DWIDTH 10 0
BBX 10 20 0 -4
BITMAP
0000
0000
0000
0000
0000
0000
0000
3F00
0180
0180
3F80
6180
6180
6180
6180
3F80
0000
0000
0000
0000
ENDCHAR

STARTCHAR b
ENCODING 98
SWIDTH 500 0
DWIDTH 10 0
BBX 10 20 0 -4
BITMAP
0000
0000
0000
6000
6000
6000
6000
7F00
6180
6180
6180
6180
6180
6180
6180
7F00
0000
0000
0000
0000
ENDCHAR

STARTCHAR c
ENCODING 99
SWIDTH 500 0
DWIDTH 10 0
BBX 10 20 0 -4
BITMAP
0000
0000
0000
0000
0000
0000
0000
3F00
6180
6000
6000
6000
6000
6000
6180
3F00
0000
0000
0000
0000
ENDCHAR

STARTCHAR d
ENCODING 100
SWIDTH 500 0
DWIDTH 10 0
BBX 10 20 0 -4
BITMAP
0000
0000
0000
0180
0180
0180
0180
3F80
6180
6180
6180
6180
6180
6180
6180
3F80
0000
0000
0000
0000
ENDCHAR

STARTCHAR e
ENCODING 101
SWIDTH 500 0
DWIDTH 10 0
BBX 10 20 0 -4
BITMAP
0000
0000
0000
0000
0000
0000
0000
3F00
6180
6180
6180
7F80
6000
6000
6180
3F00
0000
0000
0000
0000
ENDCHAR

STARTCHAR f
ENCODING 102
SWIDTH 500 0
DWIDTH 10 0
BBX 10 20 0 -4
BITMAP
0000
0000
0000
0780
0C00
0C00
0C00
3F00
0C00
0C00
0C00
0C00
0C00
0C00
0C00
0C00
0000
0000
0000
0000
ENDCHAR

STARTCHAR g
ENCODING 103
SWIDTH 500 0
DWIDTH 10 0
BBX 10 20 0 -4
BITMAP
0000
0000
0000
0000
0000
0000
0000
3F80
6180
6180
6180
6180
6180
6180
6180
3F80
0180
0180
3F00
0000
ENDCHAR

STARTCHAR h
ENCODING 104
SWIDTH 500 0
DWIDTH 10 0
BBX 10 20 0 -4
BITMAP
0000
0000
0000
6000
6000
6000
6000
7F00
6180
6180
6180
6180
6180
6180
6180
6180
0000
0000
0000
0000
ENDCHAR

STARTCHAR i
ENCODING 105
SWIDTH 500 0
DWIDTH 10 0
BBX 10 20 0 -4
BITMAP
0000
0000
0000
0C00
0C00
0000
0000
1C00
0C00
0C00
0C00
0C00
0C00
0C00
0C00
1E00
0000
0000
0000
0000
ENDCHAR

STARTCHAR j
ENCODING 106
SWIDTH 500 0
DWIDTH 10 0
BBX 10 20 0 -4
BITMAP
0000
0000
0000
0300
0300
0000
0000
0700
0300
0300
0300
0300
0300
0300
0300
0300
3300
3300
1E00
0000
ENDCHAR

STARTCHAR k
ENCODING 107
SWIDTH 500 0
DWIDTH 10 0
BBX 10 20 0 -4
BITMAP
0000
0000
0000
6000
6000
6000
6000
6180
6300
6600
6C00
7800
6C00
6600
6300
6180
0000
0000
0000
0000
ENDCHAR

STARTCHAR l
ENCODING 108
SWIDTH 500 0
DWIDTH 10 0
BBX 10 20 0 -4
BITMAP
0000
0000
0000
1C00
0C00
0C00
0C00
0C00
0C00
0C00
0C00
0C00
0C00
0C00
0C00
1E00
0000
0000
0000
0000
ENDCHAR

STARTCHAR m
ENCODING 109
SWIDTH 500 0
DWIDTH 10 0
BBX 10 20 0 -4
BITMAP
0000
0000
0000
0000
0000
0000
0000
7F00
6D80
6D80
6D80
6D80
6D80
6D80
6D80
6D80
0000
0000
0000
0000
ENDCHAR

STARTCHAR n
ENCODING 110
SWIDTH 500 0
DWIDTH 10 0
BBX 10 20 0 -4
BITMAP
0000
0000
0000
0000
0000
0000
0000
7F00
6180
6180
6180
6180
6180
6180
6180
6180
0000
0000
0000
0000
ENDCHAR

STARTCHAR o
ENCODING 111
SWIDTH 500 0
DWIDTH 10 0
BBX 10 20 0 -4
BITMAP
0000
0000
0000
0000
0000
0000
0000
3F00
6180
6180
6180
6180
6180
6180
6180
3F00
0000
0000
0000
0000
ENDCHAR

STARTCHAR p
ENCODING 112
SWIDTH 500 0
DWIDTH 10 0
BBX 10 20 0 -4
BITMAP
0000
0000
0000
0000
0000
0000
0000
7F00
6180
6180
6180
6180
6180
6180
6180
7F00
6000
6000
6000
0000
ENDCHAR

STARTCHAR q
ENCODING 113
SWIDTH 500 0
DWIDTH 10 0
BBX 10 20 0 -4
BITMAP
0000
0000
0000
0000
0000
0000
0000
3F80
6180
6180
6180
6180
6180
6180
6180
3F80
0180
0180
0180
0000
ENDCHAR

STARTCHAR r
ENCODING 114
SWIDTH 500 0
DWIDTH 10 0
BBX 10 20 0 -4
BITMAP
0000
0000
0000
0000
0000
0000
0000
6F80
7800
7000
6000
6000
6000
6000
6000
6000
0000
0000
0000
0000
ENDCHAR

STARTCHAR s
ENCODING 115
SWIDTH 500 0
DWIDTH 10 0
BBX 10 20 0 -4
BITMAP
0000
0000
0000
0000
0000
0000
0000
3F00
6180
6000
6000
3F00
0180
0180
6180
3F00
0000
0000
0000
0000
ENDCHAR

STARTCHAR t
ENCODING 116
SWIDTH 500 0
DWIDTH 10 0
BBX 10 20 0 -4
BITMAP
0000
0000
0000
1800
1800
1800
1800
7E00
1800
1800
1800
1800
1800
1800
1800
0F00
0000
0000
0000
0000
ENDCHAR

STARTCHAR u
ENCODING 117
SWIDTH 500 0
DWIDTH 10 0
BBX 10 20 0 -4
BITMAP
0000
0000
0000
0000
0000
0000
0000
6180
6180
6180
6180
6180
6180
6180
6180
3F80
0000
0000
0000
0000
ENDCHAR

STARTCHAR v
ENCODING 118
SWIDTH 500 0
DWIDTH 10 0
BBX 10 20 0 -4
BITMAP
0000
0000
0000
0000
0000
0000
0000
6180
6180
6180
3300
3300
3300
1E00
0C00
0C00
0000
0000
0000
0000
ENDCHAR

STARTCHAR w
ENCODING 119
SWIDTH 500 0
DWIDTH 10 0
BBX 10 20 0 -4
BITMAP
0000
0000
0000
0000
0000
0000
0000
6180
6180
6180
6D80
6D80
6D80
6D80
6D80
3F00
0000
0000
0000
0000
ENDCHAR

STARTCHAR x
ENCODING 120
SWIDTH 500 0
DWIDTH 10 0
BBX 10 20 0 -4
BITMAP
0000
0000
0000
0000
0000
0000
0000
6180
6180
3300
1E00
0C00
1E00
3300
6180
6180
0000
0000
0000
0000
ENDCHAR

STARTCHAR y
ENCODING 121
SWIDTH 500 0
DWIDTH 10 0
BBX 10 20 0 -4
BITMAP
0000
0000
0000
0000
0000
0000
0000
6180
6180
6180
6180
6180
6180
6180
6180
3F80
0180
0180
3F00
0000
ENDCHAR

STARTCHAR z
ENCODING 122
SWIDTH 500 0
DWIDTH 10 0
BBX 10 20 0 -4
BITMAP
0000
0000
0000
0000
0000
0000
0000
7F80
0180
0300
0600
0C00
1800
3000
6000
7F80
0000
0000
0000
0000
ENDCHAR

STARTCHAR braceleft
ENCODING 123
SWIDTH 500 0
DWIDTH 10 0
BBX 10 20 0 -4
BITMAP
0000
0000
0000
0700
0C00
0C00
0C00
0C00
0C00
3800
0C00
0C00
0C00
0C00
0C00
0700
0000
0000
0000
0000
ENDCHAR

STARTCHAR bar
ENCODING 124
SWIDTH 500 0
DWIDTH 10 0
BBX 10 20 0 -4
BITMAP
0000
0000
0000
0C00
0C00
0C00
0C00
0C00
0C00
0C00
0C00
0C00
0C00
0C00
0C00
0C00
0000
0000
0000
0000
ENDCHAR

STARTCHAR braceright
ENCODING 125
SWIDTH 500 0
DWIDTH 10 0
BBX 10 20 0 -4
BITMAP
0000
0000
0000
3800
0C00
0C00
0C00
0C00
0C00
0700
0C00
0C00
0C00
0C00
0C00
3800
0000
0000
0000
0000
ENDCHAR

STARTCHAR asciitilde
ENCODING 126
SWIDTH 500 0
DWIDTH 10 0
BBX 10 20 0 -4
BITMAP
0000
3980
6D80
6D80
6700
0000
0000
0000
0000
0000
0000
0000
0000
0000
0000
0000
0000
0000
0000
0000
ENDCHAR

STARTCHAR house
ENCODING 127
SWIDTH 500 0
DWIDTH 10 0
BBX 10 20 0 -4
BITMAP
0000
0000
0000
0000
0000
0C00
0C00
1E00
3300
3300
6180
6180
6180
6180
7F80
0000
0000
0000
0000
0000
ENDCHAR

STARTCHAR Ccedilla
ENCODING 128
SWIDTH 500 0
DWIDTH 10 0
BBX 10 20 0 -4
BITMAP
0000
0000
0000
3F00
6180
6180
6000
6000
6000
6000
6000
6000
6000
6180
6180
3F00
0C00
0C00
1800
0000
ENDCHAR

STARTCHAR udieresis
ENCODING 129
SWIDTH 500 0
DWIDTH 10 0
BBX 10 20 0 -4
BITMAP
0000
0000
0000
0000
3300
3300
0000
6180
6180
6180
6180
6180
6180
6180
6180
3F80
0000
0000
0000
0000
ENDCHAR

STARTCHAR eacute
ENCODING 130
SWIDTH 500 0
DWIDTH 10 0
BBX 10 20 0 -4
BITMAP
0000
0000
0000
0000
0600
0C00
0000
3F00
6180
6180
6180
7F80
6000
6000
6180
3F00
0000
0000
0000
0000
ENDCHAR

STARTCHAR acircumflex
ENCODING 131
SWIDTH 500 0
DWIDTH 10 0
BBX 10 20 0 -4
BITMAP
0000
0000
0000
0000
1E00
3300
0000
3F00
0180
0180
3F80
6180
6180
6180
6180
3F80
0000
0000
0000
0000
ENDCHAR

STARTCHAR adieresis
ENCODING 132
SWIDTH 500 0
DWIDTH 10 0
BBX 10 20 0 -4
BITMAP
0000
0000
0000
0000
3300
3300
0000
3F00
0180
0180
3F80
6180
6180
6180
6180
3F80
0000
0000
0000
0000
ENDCHAR

STARTCHAR agrave
ENCODING 133
SWIDTH 500 0
DWIDTH 10 0
BBX 10 20 0 -4
BITMAP
0000
0000
0000
0000
1800
0C00
0000
3F00
0180
0180
3F80
6180
6180
6180
6180
3F80
0000
0000
0000
0000
ENDCHAR

STARTCHAR aring
ENCODING 134
SWIDTH 500 0
DWIDTH 10 0
BBX 10 20 0 -4
BITMAP
0000
0000
0000
0000
1E00
3300
1E00
3F00
0180
0180
3F80
6180
6180
6180
6180
3F80
0000
0000
0000
0000
ENDCHAR

STARTCHAR ccedilla
ENCODING 135
SWIDTH 500 0
DWIDTH 10 0
BBX 10 20 0 -4
BITMAP
0000
0000
0000
0000
0000
0000
0000
3F00
6180
6000
6000
6000
6000
6000
6180
3F00
0C00
0C00
1800
0000
ENDCHAR

STARTCHAR ecircumflex
ENCODING 136
SWIDTH 500 0
DWIDTH 10 0
BBX 10 20 0 -4
BITMAP
0000
0000
0000
0000
1E00
3300
0000
3F00
6180
6180
6180
7F80
6000
6000
6180
3F00
0000
0000
0000
0000
ENDCHAR

STARTCHAR edieresis
ENCODING 137
SWIDTH 500 0
DWIDTH 10 0
BBX 10 20 0 -4
BITMAP
0000
0000
0000
0000
3300
3300
0000
3F00
6180
6180
6180
7F80
6000
6000
6180
3F00
0000
0000
0000
0000
ENDCHAR

STARTCHAR egrave
ENCODING 138
SWIDTH 500 0
DWIDTH 10 0
BBX 10 20 0 -4
BITMAP
0000
0000
0000
0000
1800
0C00
0000
3F00
6180
6180
6180
7F80
6000
6000
6180
3F00
0000
0000
0000
0000
ENDCHAR

STARTCHAR idieresis
ENCODING 139
SWIDTH 500 0
DWIDTH 10 0
BBX 10 20 0 -4
BITMAP
0000
0000
0000
0000
3300
3300
0000
1C00
0C00
0C00
0C00
0C00
0C00
0C00
0C00
1E00
0000
0000
0000
0000
ENDCHAR

STARTCHAR icircumflex
ENCODING 140
SWIDTH 500 0
DWIDTH 10 0
BBX 10 20 0 -4
BITMAP
0000
0000
0000
0000
1E00
3300
0000
1C00
0C00
0C00
0C00
0C00
0C00
0C00
0C00
1E00
0000
0000
0000
0000
ENDCHAR

STARTCHAR igrave
ENCODING 141
SWIDTH 500 0
DWIDTH 10 0
BBX 10 20 0 -4
BITMAP
0000
0000
0000
0000
1800
0C00
0000
1C00
0C00
0C00
0C00
0C00
0C00
0C00
0C00
1E00
0000
0000
0000
0000
ENDCHAR

STARTCHAR Adieresis
ENCODING 142
SWIDTH 500 0
DWIDTH 10 0
BBX 10 20 0 -4
BITMAP
3300
3300
0000
3F00
6180
6180
6180
6180
6180
7F80
6180
6180
6180
6180
6180
6180
0000
0000
0000
0000
ENDCHAR

STARTCHAR Aring
ENCODING 143
SWIDTH 500 0
DWIDTH 10 0
BBX 10 20 0 -4
BITMAP
1E00
3300
1E00
3F00
6180
6180
6180
6180
6180
7F80
6180
6180
6180
6180
6180
6180
0000
0000
0000
0000
ENDCHAR

STARTCHAR Eacute
ENCODING 144
SWIDTH 500 0
DWIDTH 10 0
BBX 10 20 0 -4
BITMAP
0600
0C00
0000
7F80
6000
6000
6000
6000
6000
7E00
6000
6000
6000
6000
6000
7F80
0000
0000
0000
0000
ENDCHAR

STARTCHAR ae
ENCODING 145
SWIDTH 500 0
DWIDTH 10 0
BBX 10 20 0 -4
BITMAP
0000
0000
0000
0000
0000
0000
0000
7780
0CC0
0CC0
7CC0
CFC0
CC00
CC00
CCC0
7B80
0000
0000
0000
0000
ENDCHAR

STARTCHAR AE
ENCODING 146
SWIDTH 500 0
DWIDTH 10 0
BBX 10 20 0 -4
BITMAP
0000
0000
0000
7FC0
C600
C600
C600
C600
C600
FFC0
C600
C600
C600
C600
C600
C7C0
0000
0000
0000
0000
ENDCHAR

STARTCHAR ocircumflex
ENCODING 147
SWIDTH 500 0
DWIDTH 10 0
BBX 10 20 0 -4
BITMAP
0000
0000
0000
0000
1E00
3300
0000
3F00
6180
6180
6180
6180
6180
6180
6180
3F00
0000
0000
0000
0000
ENDCHAR

STARTCHAR odieresis
ENCODING 148
SWIDTH 500 0
DWIDTH 10 0
BBX 10 20 0 -4
BITMAP
0000
0000
0000
0000
3300
3300
0000
3F00
6180
6180
6180
6180
6180
6180
6180
3F00
0000
0000
0000
0000
ENDCHAR

STARTCHAR ograve
ENCODING 149
SWIDTH 500 0
DWIDTH 10 0
BBX 10 20 0 -4
BITMAP
0000
0000
0000
0000
1800
0C00
0000
3F00
6180
6180
6180
6180
6180
6180
6180
3F00
0000
0000
0000
0000
ENDCHAR

STARTCHAR ucircumflex
ENCODING 150
SWIDTH 500 0
DWIDTH 10 0
BBX 10 20 0 -4
BITMAP
0000
0000
0000
0000
1E00
3300
0000
6180
6180
6180
6180
6180
6180
6180
6180
3F80
0000
0000
0000
0000
ENDCHAR

STARTCHAR ugrave
ENCODING 151
SWIDTH 500 0
DWIDTH 10 0
BBX 10 20 0 -4
BITMAP
0000
0000
0000
0000
1800
0C00
0000
6180
6180
6180
6180
6180
6180
6180
6180
3F80
0000
0000
0000
0000
ENDCHAR

STARTCHAR ydieresis
ENCODING 152
SWIDTH 500 0
DWIDTH 10 0
BBX 10 20 0 -4
BITMAP
0000
0000
0000
0000
3300
3300
0000
6180
6180
6180
6180
6180
6180
6180
6180
3F80
0180
0180
3F00
0000
ENDCHAR

STARTCHAR Odieresis
ENCODING 153
SWIDTH 500 0
DWIDTH 10 0
BBX 10 20 0 -4
BITMAP
3300
3300
0000
3F00
6180
6180
6180
6180
6180
6180
6180
6180
6180
6180
6180
3F00
0000
0000
0000
0000
ENDCHAR

STARTCHAR Udieresis
ENCODING 154
SWIDTH 500 0
DWIDTH 10 0
BBX 10 20 0 -4
BITMAP
3300
3300
0000
6180
6180
6180
6180
6180
6180
6180
6180
6180
6180
6180
6180
3F00
0000
0000
0000
0000
ENDCHAR

STARTCHAR oslash
ENCODING 155
SWIDTH 500 0
DWIDTH 10 0
BBX 10 20 0 -4
BITMAP
0000
0000
0000
0000
0000
0000
0000
3F40
6180
6380
6780
6D80
7980
7180
6180
BF00
0000
0000
0000
0000
ENDCHAR

STARTCHAR sterling
ENCODING 156
SWIDTH 500 0
DWIDTH 10 0
BBX 10 20 0 -4
BITMAP
0000
0000
0000
1E00
3300
3000
3000
3000
3000
7E00
3000
3000
3000
3000
3180
7F80
0000
0000
0000
0000
ENDCHAR

STARTCHAR Oslash
ENCODING 157
SWIDTH 500 0
DWIDTH 10 0
BBX 10 20 0 -4
BITMAP
0000
0000
0000
3F00
6180
61C0
6180
6380
6780
6D80
7980
7180
6180
E180
6180
3F00
0000
0000
0000
0000
ENDCHAR

STARTCHAR multiply
ENCODING 158
SWIDTH 500 0
DWIDTH 10 0
BBX 10 20 0 -4
BITMAP
0000
0000
0000
0000
0000
C0C0
6180
3300
1E00
0C00
1E00
3300
6180
C0C0
0000
0000
0000
0000
0000
0000
ENDCHAR

STARTCHAR florin
ENCODING 159
SWIDTH 500 0
DWIDTH 10 0
BBX 10 20 0 -4
BITMAP
0000
0000
0000
0700
0D80
0D80
0C00
0C00
3F00
0C00
0C00
0C00
0C00
0C00
0C00
0C00
6C00
6C00
3800
0000
ENDCHAR

STARTCHAR aacute
ENCODING 160
SWIDTH 500 0
DWIDTH 10 0
BBX 10 20 0 -4
BITMAP
0000
0000
0000
0000
0600
0C00
0000
3F00
0180
0180
3F80
6180
6180
6180
6180
3F80
0000
0000
0000
0000
ENDCHAR

STARTCHAR iacute
ENCODING 161
SWIDTH 500 0
DWIDTH 10 0
BBX 10 20 0 -4
BITMAP
0000
0000
0000
0000
0600
0C00
0000
1C00
0C00
0C00
0C00
0C00
0C00
0C00
0C00
1E00
0000
0000
0000
0000
ENDCHAR

STARTCHAR oacute
ENCODING 162
SWIDTH 500 0
DWIDTH 10 0
BBX 10 20 0 -4
BITMAP
0000
0000
0000
0000
0600
0C00
0000
3F00
6180
6180
6180
6180
6180
6180
6180
3F00
0000
0000
0000
0000
ENDCHAR

STARTCHAR uacute
ENCODING 163
SWIDTH 500 0
DWIDTH 10 0
BBX 10 20 0 -4
BITMAP
0000
0000
0000
0000
0600
0C00
0000
6180
6180
6180
6180
6180
6180
6180
6180
3F80
0000
0000
0000
0000
ENDCHAR

STARTCHAR ntilde
ENCODING 164
SWIDTH 500 0
DWIDTH 10 0
BBX 10 20 0 -4
BITMAP
0000
0000
0000
0000
3B80
6E00
0000
7F00
6180
6180
6180
6180
6180
6180
6180
6180
0000
0000
0000
0000
ENDCHAR

STARTCHAR Ntilde
ENCODING 165
SWIDTH 500 0
DWIDTH 10 0
BBX 10 20 0 -4
BITMAP
3B80
6E00
0000
6180
6180
6180
6180
7180
7980
6D80
6780
6380
6180
6180
6180
6180
0000
0000
0000
0000
ENDCHAR

STARTCHAR ordfeminine
ENCODING 166
SWIDTH 500 0
DWIDTH 10 0
BBX 10 20 0 -4
BITMAP
0000
3E00
0300
3F00
6300
6300
6300
3F00
0000
7F00
0000
0000
0000
0000
0000
0000
0000
0000
0000
0000
ENDCHAR

STARTCHAR ordmasculine
ENCODING 167
SWIDTH 500 0
DWIDTH 10 0
BBX 10 20 0 -4
BITMAP
0000
3E00
6300
6300
6300
6300
6300
3E00
0000
7F00
0000
0000
0000
0000
0000
0000
0000
0000
0000
0000
ENDCHAR

STARTCHAR questiondown
ENCODING 168
SWIDTH 500 0
DWIDTH 10 0
BBX 10 20 0 -4
BITMAP
0000
0000
0000
0C00
0C00
0000
0000
0C00
0C00
1800
3000
6000
6180
6180
3300
1E00
0000
0000
0000
0000
ENDCHAR

STARTCHAR registered
ENCODING 169
SWIDTH 500 0
DWIDTH 10 0
BBX 10 20 0 -4
BITMAP
0000
0000
0000
0000
0000
3F00
4080
BE40
B340
B340
BE40
B640
B340
4080
3F00
0000
0000
0000
0000
0000
ENDCHAR

STARTCHAR logicalnot
ENCODING 170
SWIDTH 500 0
DWIDTH 10 0
BBX 10 20 0 -4
BITMAP
0000
0000
0000
0000
0000
0000
0000
7F80
0180
0180
0180
0180
0000
0000
0000
0000
0000
0000
0000
0000
ENDCHAR

STARTCHAR onehalf
ENCODING 171
SWIDTH 500 0
DWIDTH 10 0
BBX 10 20 0 -4
BITMAP
0000
0000
1800
3800
1800
1840
18C0
1980
0300
0600
0C00
1B80
36C0
60C0
C180
8300
07C0
0000
0000
0000
ENDCHAR

STARTCHAR onequarter
ENCODING 172
SWIDTH 500 0
DWIDTH 10 0
BBX 10 20 0 -4
BITMAP
0000
0000
1800
3800
1800
1840
18C0
1980
0300
0600
0C80
1980
3380
6580
CF80
8180
0180
0000
0000
0000
ENDCHAR

STARTCHAR exclamdown
ENCODING 173
SWIDTH 500 0
DWIDTH 10 0
BBX 10 20 0 -4
BITMAP
0000
0000
0000
0C00
0C00
0000
0000
0C00
0C00
0C00
0C00
0C00
0C00
0C00
0C00
0C00
0000
0000
0000
0000
ENDCHAR

STARTCHAR guillemotleft
ENCODING 174
SWIDTH 500 0
DWIDTH 10 0
BBX 10 20 0 -4
BITMAP
0000
0000
0000
0000
0000
0000
0000
0CC0
1980
3300
6600
CC00
6600
3300
1980
0CC0
0000
0000
0000
0000
ENDCHAR

STARTCHAR guillemotright
ENCODING 175
SWIDTH 500 0
DWIDTH 10 0
BBX 10 20 0 -4
BITMAP
0000
0000
0000
0000
0000
0000
0000
CC00
6600
3300
1980
0CC0
1980
3300
6600
CC00
0000
0000
0000
0000
ENDCHAR

STARTCHAR ltshade
ENCODING 176
SWIDTH 500 0
DWIDTH 10 0
BBX 10 20 0 -4
BITMAP
AA80
0000
AA80
0000
AA80
0000
AA80
0000
AA80
0000
AA80
0000
AA80
0000
AA80
0000
AA80
0000
AA80
0000
ENDCHAR

STARTCHAR shade
ENCODING 177
SWIDTH 500 0
DWIDTH 10 0
BBX 10 20 0 -4
BITMAP
AA80
5540
AA80
5540
AA80
5540
AA80
5540
AA80
5540
AA80
5540
AA80
5540
AA80
5540
AA80
5540
AA80
5540
ENDCHAR

STARTCHAR dkshade
ENCODING 178
SWIDTH 500 0
DWIDTH 10 0
BBX 10 20 0 -4
BITMAP
FFC0
AA80
FFC0
AA80
FFC0
AA80
FFC0
AA80
FFC0
AA80
FFC0
AA80
FFC0
AA80
FFC0
AA80
FFC0
AA80
FFC0
AA80
ENDCHAR

STARTCHAR SF110000
ENCODING 179
SWIDTH 500 0
DWIDTH 10 0
BBX 10 20 0 -4
BITMAP
0C00
0C00
0C00
0C00
0C00
0C00
0C00
0C00
0C00
0C00
0C00
0C00
0C00
0C00
0C00
0C00
0C00
0C00
0C00
0C00
ENDCHAR

STARTCHAR SF090000
ENCODING 180
SWIDTH 500 0
DWIDTH 10 0
BBX 10 20 0 -4
BITMAP
0C00
0C00
0C00
0C00
0C00
0C00
0C00
0C00
0C00
FC00
FC00
0C00
0C00
0C00
0C00
0C00
0C00
0C00
0C00
0C00
ENDCHAR

STARTCHAR Aacute
ENCODING 181
SWIDTH 500 0
DWIDTH 10 0
BBX 10 20 0 -4
BITMAP
0600
0C00
0000
3F00
6180
6180
6180
6180
6180
7F80
6180
6180
6180
6180
6180
6180
0000
0000
0000
0000
ENDCHAR

STARTCHAR Acircumflex
ENCODING 182
SWIDTH 500 0
DWIDTH 10 0
BBX 10 20 0 -4
BITMAP
1E00
3300
0000
3F00
6180
6180
6180
6180
6180
7F80
6180
6180
6180
6180
6180
6180
0000
0000
0000
0000
ENDCHAR

STARTCHAR Agrave
ENCODING 183
SWIDTH 500 0
DWIDTH 10 0
BBX 10 20 0 -4
BITMAP
1800
0C00
0000
3F00
6180
6180
6180
6180
6180
7F80
6180
6180
6180
6180
6180
6180
0000
0000
0000
0000
ENDCHAR

STARTCHAR copyright
ENCODING 184
SWIDTH 500 0
DWIDTH 10 0
BBX 10 20 0 -4
BITMAP
0000
0000
0000
0000
0000
3F00
4080
9E40
B340
B040
B040
B340
9E40
4080
3F00
0000
0000
0000
0000
0000
ENDCHAR

STARTCHAR SF230000
ENCODING 185
SWIDTH 500 0
DWIDTH 10 0
BBX 10 20 0 -4
BITMAP
3600
3600
3600
3600
3600
3600
3600
F600
F600
0600
F600
F600
3600
3600
3600
3600
3600
3600
3600
3600
ENDCHAR

STARTCHAR SF240000
ENCODING 186
SWIDTH 500 0
DWIDTH 10 0
BBX 10 20 0 -4
BITMAP
3600
3600
3600
3600
3600
3600
3600
3600
3600
3600
3600
3600
3600
3600
3600
3600
3600
3600
3600
3600
ENDCHAR

STARTCHAR SF250000
ENCODING 187
SWIDTH 500 0
DWIDTH 10 0
BBX 10 20 0 -4
BITMAP
0000
0000
0000
0000
0000
0000
0000
FE00
FE00
0600
F600
F600
3600
3600
3600
3600
3600
3600
3600
3600
ENDCHAR

STARTCHAR SF260000
ENCODING 188
SWIDTH 500 0
DWIDTH 10 0
BBX 10 20 0 -4
BITMAP
3600
3600
3600
3600
3600
3600
3600
F600
F600
0600
FE00
FE00
0000
0000
0000
0000
0000
0000
0000
0000
ENDCHAR

STARTCHAR cent
ENCODING 189
SWIDTH 500 0
DWIDTH 10 0
BBX 10 20 0 -4
BITMAP
0000
0000
0000
0000
0000
0C00
0C00
3F00
6D80
6C00
6C00
6C00
6C00
6C00
6D80
3F00
0C00
0C00
0000
0000
ENDCHAR

STARTCHAR yen
ENCODING 190
SWIDTH 500 0
DWIDTH 10 0
BBX 10 20 0 -4
BITMAP
0000
0000
0000
6180
6180
3300
3300
3300
1E00
1E00
0C00
3F00
0C00
3F00
0C00
0C00
0000
0000
0000
0000
ENDCHAR

STARTCHAR SF030000
ENCODING 191
SWIDTH 500 0
DWIDTH 10 0
BBX 10 20 0 -4
BITMAP
0000
0000
0000
0000
0000
0000
0000
0000
0000
FC00
FC00
0C00
0C00
0C00
0C00
0C00
0C00
0C00
0C00
0C00
ENDCHAR

STARTCHAR SF020000
ENCODING 192
SWIDTH 500 0
DWIDTH 10 0
BBX 10 20 0 -4
BITMAP
0C00
0C00
0C00
0C00
0C00
0C00
0C00
0C00
0C00
0FC0
0FC0
0000
0000
0000
0000
0000
0000
0000
0000
0000
ENDCHAR

STARTCHAR SF070000
ENCODING 193
SWIDTH 500 0
DWIDTH 10 0
BBX 10 20 0 -4
BITMAP
0C00
0C00
0C00
0C00
0C00
0C00
0C00
0C00
0C00
FFC0
FFC0
0000
0000
0000
0000
0000
0000
0000
0000
0000
ENDCHAR

STARTCHAR SF060000
ENCODING 194
SWIDTH 500 0
DWIDTH 10 0
BBX 10 20 0 -4
BITMAP
0000
0000
0000
0000
0000
0000
0000
0000
0000
FFC0
FFC0
0C00
0C00
0C00
0C00
0C00
0C00
0C00
0C00
0C00
ENDCHAR

STARTCHAR SF080000
ENCODING 195
SWIDTH 500 0
DWIDTH 10 0
BBX 10 20 0 -4
BITMAP
0C00
0C00
0C00
0C00
0C00
0C00
0C00
0C00
0C00
0FC0
0FC0
0C00
0C00
0C00
0C00
0C00
0C00
0C00
0C00
0C00
ENDCHAR

STARTCHAR SF100000
ENCODING 196
SWIDTH 500 0
DWIDTH 10 0
BBX 10 20 0 -4
BITMAP
0000
0000
0000
0000
0000
0000
0000
0000
0000
FFC0
FFC0
0000
0000
0000
0000
0000
0000
0000
0000
0000
ENDCHAR

STARTCHAR SF050000
ENCODING 197
SWIDTH 500 0
DWIDTH 10 0
BBX 10 20 0 -4
BITMAP
0C00
0C00
0C00
0C00
0C00
0C00
0C00
0C00
0C00
FFC0
FFC0
0C00
0C00
0C00
0C00
0C00
0C00
0C00
0C00
0C00
ENDCHAR

STARTCHAR atilde
ENCODING 198
SWIDTH 500 0
DWIDTH 10 0
BBX 10 20 0 -4
BITMAP
0000
0000
0000
0000
3B80
6E00
0000
3F00
0180
0180
3F80
6180
6180
6180
6180
3F80
0000
0000
0000
0000
ENDCHAR

STARTCHAR Atilde
ENCODING 199
SWIDTH 500 0
DWIDTH 10 0
BBX 10 20 0 -4
BITMAP
3B80
6E00
0000
3F00
6180
6180
6180
6180
6180
7F80
6180
6180
6180
6180
6180
6180
0000
0000
0000
0000
ENDCHAR

STARTCHAR SF380000
ENCODING 200
SWIDTH 500 0
DWIDTH 10 0
BBX 10 20 0 -4
BITMAP
3600
3600
3600
3600
3600
3600
3600
37C0
37C0
3000
3FC0
3FC0
0000
0000
0000
0000
0000
0000
0000
0000
ENDCHAR

STARTCHAR SF390000
ENCODING 201
SWIDTH 500 0
DWIDTH 10 0
BBX 10 20 0 -4
BITMAP
0000
0000
0000
0000
0000
0000
0000
3FC0
3FC0
3000
37C0
37C0
3600
3600
3600
3600
3600
3600
3600
3600
ENDCHAR

STARTCHAR SF400000
ENCODING 202
SWIDTH 500 0
DWIDTH 10 0
BBX 10 20 0 -4
BITMAP
3600
3600
3600
3600
3600
3600
3600
F7C0
F7C0
0000
FFC0
FFC0
0000
0000
0000
0000
0000
0000
0000
0000
ENDCHAR

STARTCHAR SF410000
ENCODING 203
SWIDTH 500 0
DWIDTH 10 0
BBX 10 20 0 -4
BITMAP
0000
0000
0000
0000
0000
0000
0000
FFC0
FFC0
0000
F7C0
F7C0
3600
3600
3600
3600
3600
3600
3600
3600
ENDCHAR

STARTCHAR SF420000
ENCODING 204
SWIDTH 500 0
DWIDTH 10 0
BBX 10 20 0 -4
BITMAP
3600
3600
3600
3600
3600
3600
3600
37C0
37C0
3000
37C0
37C0
3600
3600
3600
3600
3600
3600
3600
3600
ENDCHAR

STARTCHAR SF430000
ENCODING 205
SWIDTH 500 0
DWIDTH 10 0
BBX 10 20 0 -4
BITMAP
0000
0000
0000
0000
0000
0000
0000
FFC0
FFC0
0000
FFC0
FFC0
0000
0000
0000
0000
0000
0000
0000
0000
ENDCHAR

STARTCHAR SF440000
ENCODING 206
SWIDTH 500 0
DWIDTH 10 0
BBX 10 20 0 -4
BITMAP
3600
3600
3600
3600
3600
3600
3600
F7C0
F7C0
0000
F7C0
F7C0
3600
3600
3600
3600
3600
3600
3600
3600
ENDCHAR

STARTCHAR currency
ENCODING 207
SWIDTH 500 0
DWIDTH 10 0
BBX 10 20 0 -4
BITMAP
0000
0000
0000
0000
0000
C180
6300
3E00
6300
6300
6300
6300
3E00
6300
C180
0000
0000
0000
0000
0000
ENDCHAR

STARTCHAR eth
ENCODING 208
SWIDTH 500 0
DWIDTH 10 0
BBX 10 20 0 -4
BITMAP
0000
0000
0000
3600
1800
6C00
0600
3F00
6180
6180
6180
6180
6180
6180
6180
3F00
0000
0000
0000
0000
ENDCHAR

STARTCHAR Eth
ENCODING 209
SWIDTH 500 0
DWIDTH 10 0
BBX 10 20 0 -4
BITMAP
0000
0000
0000
7E00
6300
6180
6180
6180
6180
FD80
6180
6180
6180
6180
6300
7E00
0000
0000
0000
0000
ENDCHAR

STARTCHAR Ecircumflex
ENCODING 210
SWIDTH 500 0
DWIDTH 10 0
BBX 10 20 0 -4
BITMAP
1E00
3300
0000
7F80
6000
6000
6000
6000
6000
7E00
6000
6000
6000
6000
6000
7F80
0000
0000
0000
0000
ENDCHAR

STARTCHAR Edieresis
ENCODING 211
SWIDTH 500 0
DWIDTH 10 0
BBX 10 20 0 -4
BITMAP
3300
3300
0000
7F80
6000
6000
6000
6000
6000
7E00
6000
6000
6000
6000
6000
7F80
0000
0000
0000
0000
ENDCHAR

STARTCHAR Egrave
ENCODING 212
SWIDTH 500 0
DWIDTH 10 0
BBX 10 20 0 -4
BITMAP
1800
0C00
0000
7F80
6000
6000
6000
6000
6000
7E00
6000
6000
6000
6000
6000
7F80
0000
0000
0000
0000
ENDCHAR

STARTCHAR dotlessi
ENCODING 213
SWIDTH 500 0
DWIDTH 10 0
BBX 10 20 0 -4
BITMAP
0000
0000
0000
0000
0000
0000
0000
1C00
0C00
0C00
0C00
0C00
0C00
0C00
0C00
1E00
0000
0000
0000
0000
ENDCHAR

STARTCHAR Iacute
ENCODING 214
SWIDTH 500 0
DWIDTH 10 0
BBX 10 20 0 -4
BITMAP
0600
0C00
0000
1E00
0C00
0C00
0C00
0C00
0C00
0C00
0C00
0C00
0C00
0C00
0C00
1E00
0000
0000
0000
0000
ENDCHAR

STARTCHAR Icircumflex
ENCODING 215
SWIDTH 500 0
DWIDTH 10 0
BBX 10 20 0 -4
BITMAP
1E00
3300
0000
1E00
0C00
0C00
0C00
0C00
0C00
0C00
0C00
0C00
0C00
0C00
0C00
1E00
0000
0000
0000
0000
ENDCHAR

STARTCHAR Idieresis
ENCODING 216
SWIDTH 500 0
DWIDTH 10 0
BBX 10 20 0 -4
BITMAP
3300
3300
0000
1E00
0C00
0C00
0C00
0C00
0C00
0C00
0C00
0C00
0C00
0C00
0C00
1E00
0000
0000
0000
0000
ENDCHAR

STARTCHAR SF040000
ENCODING 217
SWIDTH 500 0
DWIDTH 10 0
BBX 10 20 0 -4
BITMAP
0C00
0C00
0C00
0C00
0C00
0C00
0C00
0C00
0C00
FC00
FC00
0000
0000
0000
0000
0000
0000
0000
0000
0000
ENDCHAR

STARTCHAR SF010000
ENCODING 218
SWIDTH 500 0
DWIDTH 10 0
BBX 10 20 0 -4
BITMAP
0000
0000
0000
0000
0000
0000
0000
0000
0000
0FC0
0FC0
0C00
0C00
0C00
0C00
0C00
0C00
0C00
0C00
0C00
ENDCHAR

STARTCHAR block
ENCODING 219
SWIDTH 500 0
DWIDTH 10 0
BBX 10 20 0 -4
BITMAP
FFC0
FFC0
FFC0
FFC0
FFC0
FFC0
FFC0
FFC0
FFC0
FFC0
FFC0
FFC0
FFC0
FFC0
FFC0
FFC0
FFC0
FFC0
FFC0
FFC0
ENDCHAR

STARTCHAR dnblock
ENCODING 220
SWIDTH 500 0
DWIDTH 10 0
BBX 10 20 0 -4
BITMAP
0000
0000
0000
0000
0000
0000
0000
0000
0000
0000
FFC0
FFC0
FFC0
FFC0
FFC0
FFC0
FFC0
FFC0
FFC0
FFC0
ENDCHAR

STARTCHAR brokenbar
ENCODING 221
SWIDTH 500 0
DWIDTH 10 0
BBX 10 20 0 -4
BITMAP
0000
0000
0000
0C00
0C00
0C00
0C00
0C00
0C00
0000
0C00
0C00
0C00
0C00
0C00
0C00
0000
0000
0000
0000
ENDCHAR

STARTCHAR Igrave
ENCODING 222
SWIDTH 500 0
DWIDTH 10 0
BBX 10 20 0 -4
BITMAP
1800
0C00
0000
1E00
0C00
0C00
0C00
0C00
0C00
0C00
0C00
0C00
0C00
0C00
0C00
1E00
0000
0000
0000
0000
ENDCHAR

STARTCHAR upblock
ENCODING 223
SWIDTH 500 0
DWIDTH 10 0
BBX 10 20 0 -4
BITMAP
FFC0
FFC0
FFC0
FFC0
FFC0
FFC0
FFC0
FFC0
FFC0
FFC0
0000
0000
0000
0000
0000
0000
0000
0000
0000
0000
ENDCHAR

STARTCHAR Oacute
ENCODING 224
SWIDTH 500 0
DWIDTH 10 0
BBX 10 20 0 -4
BITMAP
0600
0C00
0000
3F00
6180
6180
6180
6180
6180
6180
6180
6180
6180
6180
6180
3F00
0000
0000
0000
0000
ENDCHAR

STARTCHAR germandbls
ENCODING 225
SWIDTH 500 0
DWIDTH 10 0
BBX 10 20 0 -4
BITMAP
0000
0000
0000
3E00
6300
6300
6300
6200
7F00
6180
6180
6180
6180
6180
7180
5F00
0000
0000
0000
0000
ENDCHAR

STARTCHAR Ocircumflex
ENCODING 226
SWIDTH 500 0
DWIDTH 10 0
BBX 10 20 0 -4
BITMAP
1E00
3300
0000
3F00
6180
6180
6180
6180
6180
6180
6180
6180
6180
6180
6180
3F00
0000
0000
0000
0000
ENDCHAR

STARTCHAR Ograve
ENCODING 227
SWIDTH 500 0
DWIDTH 10 0
BBX 10 20 0 -4
BITMAP
1800
0C00
0000
3F00
6180
6180
6180
6180
6180
6180
6180
6180
6180
6180
6180
3F00
0000
0000
0000
0000
ENDCHAR

STARTCHAR otilde
ENCODING 228
SWIDTH 500 0
DWIDTH 10 0
BBX 10 20 0 -4
BITMAP
0000
0000
0000
0000
3B80
6E00
0000
3F00
6180
6180
6180
6180
6180
6180
6180
3F00
0000
0000
0000
0000
ENDCHAR

STARTCHAR Otilde
ENCODING 229
SWIDTH 500 0
DWIDTH 10 0
BBX 10 20 0 -4
BITMAP
3B80
6E00
0000
3F00
6180
6180
6180
6180
6180
6180
6180
6180
6180
6180
6180
3F00
0000
0000
0000
0000
ENDCHAR

STARTCHAR mu
ENCODING 230
SWIDTH 500 0
DWIDTH 10 0
BBX 10 20 0 -4
BITMAP
0000
0000
0000
0000
0000
0000
0000
6180
6180
6180
6180
6180
6180
6180
6380
7D80
6000
6000
6000
0000
ENDCHAR

STARTCHAR thorn
ENCODING 231
SWIDTH 500 0
DWIDTH 10 0
BBX 10 20 0 -4
BITMAP
0000
0000
0000
6000
6000
6000
6000
7F00
6180
6180
6180
6180
6180
6180
6180
7F00
6000
6000
6000
0000
ENDCHAR

STARTCHAR Thorn
ENCODING 232
SWIDTH 500 0
DWIDTH 10 0
BBX 10 20 0 -4
BITMAP
0000
0000
0000
6000
6000
7F00
6180
6180
6180
6180
6180
6180
6180
7F00
6000
6000
0000
0000
0000
0000
ENDCHAR

STARTCHAR Uacute
ENCODING 233
SWIDTH 500 0
DWIDTH 10 0
BBX 10 20 0 -4
BITMAP
0600
0C00
0000
6180
6180
6180
6180
6180
6180
6180
6180
6180
6180
6180
6180
3F00
0000
0000
0000
0000
ENDCHAR

STARTCHAR Ucircumflex
ENCODING 234
SWIDTH 500 0
DWIDTH 10 0
BBX 10 20 0 -4
BITMAP
1E00
3300
0000
6180
6180
6180
6180
6180
6180
6180
6180
6180
6180
6180
6180
3F00
0000
0000
0000
0000
ENDCHAR

STARTCHAR Ugrave
ENCODING 235
SWIDTH 500 0
DWIDTH 10 0
BBX 10 20 0 -4
BITMAP
1800
0C00
0000
6180
6180
6180
6180
6180
6180
6180
6180
6180
6180
6180
6180
3F00
0000
0000
0000
0000
ENDCHAR

STARTCHAR yacute
ENCODING 236
SWIDTH 500 0
DWIDTH 10 0
BBX 10 20 0 -4
BITMAP
0000
0000
0000
0000
0600
0C00
0000
6180
6180
6180
6180
6180
6180
6180
6180
3F80
0180
0180
3F00
0000
ENDCHAR

STARTCHAR Yacute
ENCODING 237
SWIDTH 500 0
DWIDTH 10 0
BBX 10 20 0 -4
BITMAP
0600
0C00
0000
6180
6180
6180
3300
3300
3300
1E00
0C00
0C00
0C00
0C00
0C00
0C00
0000
0000
0000
0000
ENDCHAR

STARTCHAR macron
ENCODING 238
SWIDTH 500 0
DWIDTH 10 0
BBX 10 20 0 -4
BITMAP
0000
7F80
0000
0000
0000
0000
0000
0000
0000
0000
0000
0000
0000
0000
0000
0000
0000
0000
0000
0000
ENDCHAR

STARTCHAR acute
ENCODING 239
SWIDTH 500 0
DWIDTH 10 0
BBX 10 20 0 -4
BITMAP
0600
0C00
0000
0000
0000
0000
0000
0000
0000
0000
0000
0000
0000
0000
0000
0000
0000
0000
0000
0000
ENDCHAR

STARTCHAR hyphen
ENCODING 240
SWIDTH 500 0
DWIDTH 10 0
BBX 10 20 0 -4
BITMAP
0000
0000
0000
0000
0000
0000
0000
0000
0000
3F00
0000
0000
0000
0000
0000
0000
0000
0000
0000
0000
ENDCHAR

STARTCHAR plusminus
ENCODING 241
SWIDTH 500 0
DWIDTH 10 0
BBX 10 20 0 -4
BITMAP
0000
0000
0000
0000
0000
0000
0C00
0C00
0C00
7F80
0C00
0C00
0C00
0000
0000
7F80
0000
0000
0000
0000
ENDCHAR

STARTCHAR underscoredbl
ENCODING 242
SWIDTH 500 0
DWIDTH 10 0
BBX 10 20 0 -4
BITMAP
0000
0000
0000
0000
0000
0000
0000
0000
0000
0000
0000
0000
0000
0000
0000
0000
0000
7F80
0000
7F80
ENDCHAR

STARTCHAR threequarters
ENCODING 243
SWIDTH 500 0
DWIDTH 10 0
BBX 10 20 0 -4
BITMAP
0000
0000
3800
4C00
1800
0C40
4CC0
3980
0300
0600
0C80
1980
3380
6580
CF80
8180
0180
0000
0000
0000
ENDCHAR

STARTCHAR paragraph
ENCODING 244
SWIDTH 500 0
DWIDTH 10 0
BBX 10 20 0 -4
BITMAP
0000
0000
0000
7FC0
CCC0
CCC0
CCC0
CCC0
CCC0
7CC0
0CC0
0CC0
0CC0
0CC0
0CC0
0CC0
0000
0000
0000
0000
ENDCHAR

STARTCHAR section
ENCODING 245
SWIDTH 500 0
DWIDTH 10 0
BBX 10 20 0 -4
BITMAP
0000
0000
3E00
6300
6000
6000
3C00
6600
6300
6300
6300
3300
1E00
0300
0300
6300
3E00
0000
0000
0000
ENDCHAR

STARTCHAR divide
ENCODING 246
SWIDTH 500 0
DWIDTH 10 0
BBX 10 20 0 -4
BITMAP
0000
0000
0000
0000
0000
0C00
0C00
0000
0000
7F80
0000
0000
0C00
0C00
0000
0000
0000
0000
0000
0000
ENDCHAR

STARTCHAR cedilla
ENCODING 247
SWIDTH 500 0
DWIDTH 10 0
BBX 10 20 0 -4
BITMAP
0000
0000
0000
0000
0000
0000
0000
0000
0000
0000
0000
0000
0000
0000
0000
0000
0C00
0C00
1800
0000
ENDCHAR

STARTCHAR degree
ENCODING 248
SWIDTH 500 0
DWIDTH 10 0
BBX 10 20 0 -4
BITMAP
0000
1E00
3300
3300
3300
1E00
0000
0000
0000
0000
0000
0000
0000
0000
0000
0000
0000
0000
0000
0000
ENDCHAR

STARTCHAR dieresis
ENCODING 249
SWIDTH 500 0
DWIDTH 10 0
BBX 10 20 0 -4
BITMAP
3300
3300
0000
0000
0000
0000
0000
0000
0000
0000
0000
0000
0000
0000
0000
0000
0000
0000
0000
0000
ENDCHAR

STARTCHAR periodcentered
ENCODING 250
SWIDTH 500 0
DWIDTH 10 0
BBX 10 20 0 -4
BITMAP
0000
0000
0000
0000
0000
0000
0000
0000
0000
0C00
0C00
0000
0000
0000
0000
0000
0000
0000
0000
0000
ENDCHAR

STARTCHAR onesuperior
ENCODING 251
SWIDTH 500 0
DWIDTH 10 0
BBX 10 20 0 -4
BITMAP
0000
0C00
1C00
0C00
0C00
0C00
0C00
0000
0000
0000
0000
0000
0000
0000
0000
0000
0000
0000
0000
0000
ENDCHAR

STARTCHAR threesuperior
ENCODING 252
SWIDTH 500 0
DWIDTH 10 0
BBX 10 20 0 -4
BITMAP
0000
1C00
2600
0C00
0600
2600
1C00
0000
0000
0000
0000
0000
0000
0000
0000
0000
0000
0000
0000
0000
ENDCHAR

STARTCHAR twosuperior
ENCODING 253
SWIDTH 500 0
DWIDTH 10 0
BBX 10 20 0 -4
BITMAP
0000
1C00
3600
0600
0C00
1800
3E00
0000
0000
0000
0000
0000
0000
0000
0000
0000
0000
0000
0000
0000
ENDCHAR

STARTCHAR filledbox
ENCODING 254
SWIDTH 500 0
DWIDTH 10 0
BBX 10 20 0 -4
BITMAP
0000
0000
0000
0000
0000
0000
3F00
3F00
3F00
3F00
3F00
3F00
3F00
3F00
0000
0000
0000
0000
0000
0000
ENDCHAR

STARTCHAR space
ENCODING 255
SWIDTH 500 0
DWIDTH 10 0
BBX 10 20 0 -4
BITMAP
0000
0000
0000
0000
0000
0000
0000
0000
0000
0000
0000
0000
0000
0000
0000
0000
0000
0000
0000
0000
ENDCHAR

ENDFONT
