STARTFONT 2.1
FONT -xos4-Terminus-Bold-R-Normal--14-140-72-72-C-80-IBM-CP850
SIZE 14 72 72
FONTBOUNDINGBOX 8 14 0 -2

STARTPROPERTIES 22
FOUNDRY "xos4"
FAMILY_NAME "Terminus"
WEIGHT_NAME "Bold"
SLANT "R"
SETWIDTH_NAME "Normal"
ADD_STYLE_NAME ""
PIXEL_SIZE 14
POINT_SIZE 140
RESOLUTION_X 72
RESOLUTION_Y 72
SPACING "C"
AVERAGE_WIDTH 80
CHARSET_REGISTRY "IBM"
CHARSET_ENCODING "CP850"
MIN_SPACE 0
COPYRIGHT "Copyright (C) 2005 Dimitar Toshkov Zhekov"
WEIGHT 10
X_HEIGHT 12
QUAD_WIDTH 8
DEFAULT_CHAR 32
FONT_DESCENT 2
FONT_ASCENT 12
ENDPROPERTIES

CHARS 253

STARTCHAR uni0000
ENCODING 0
SWIDTH 571 0
DWIDTH 8 0
BBX 8 14 0 -2
BITMAP
00
00
EE
C6
00
C6
C6
C6
C6
00
C6
EE
00
00
ENDCHAR

STARTCHAR smileface
ENCODING 1
SWIDTH 571 0
DWIDTH 8 0
BBX 8 14 0 -2
BITMAP
00
00
7C
82
AA
82
82
BA
92
82
82
7C
00
00
ENDCHAR

STARTCHAR invsmileface
ENCODING 2
SWIDTH 571 0
DWIDTH 8 0
BBX 8 14 0 -2
BITMAP
00
00
7C
FE
D6
FE
FE
C6
EE
FE
FE
7C
00
00
ENDCHAR

STARTCHAR heart
ENCODING 3
SWIDTH 571 0
DWIDTH 8 0
BBX 8 14 0 -2
BITMAP
00
00
00
6C
FE
FE
FE
FE
7C
38
10
00
00
00
ENDCHAR

STARTCHAR diamond
ENCODING 4
SWIDTH 571 0
DWIDTH 8 0
BBX 8 14 0 -2
BITMAP
00
00
00
00
18
3C
7E
FF
7E
3C
18
00
00
00
ENDCHAR

STARTCHAR club
ENCODING 5
SWIDTH 571 0
DWIDTH 8 0
BBX 8 14 0 -2
BITMAP
00
00
18
3C
3C
18
5A
FF
FF
5A
18
3C
00
00
ENDCHAR

STARTCHAR spade
ENCODING 6
SWIDTH 571 0
DWIDTH 8 0
BBX 8 14 0 -2
BITMAP
00
00
18
18
3C
7E
FF
FF
7E
18
18
3C
00
00
ENDCHAR

STARTCHAR periodcentered
ENCODING 7
SWIDTH 571 0
DWIDTH 8 0
BBX 8 14 0 -2
BITMAP
00
00
00
00
00
00
38
38
38
00
00
00
00
00
ENDCHAR

STARTCHAR invbullet
ENCODING 8
SWIDTH 571 0
DWIDTH 8 0
BBX 8 14 0 -2
BITMAP
FF
FF
FF
FF
FF
E7
C3
C3
E7
FF
FF
FF
FF
FF
ENDCHAR

STARTCHAR circle
ENCODING 9
SWIDTH 571 0
DWIDTH 8 0
BBX 8 14 0 -2
BITMAP
00
00
00
00
3C
66
42
42
66
3C
00
00
00
00
ENDCHAR

STARTCHAR invcircle
ENCODING 10
SWIDTH 571 0
DWIDTH 8 0
BBX 8 14 0 -2
BITMAP
FF
FF
FF
FF
C3
99
BD
BD
99
C3
FF
FF
FF
FF
ENDCHAR

STARTCHAR male
ENCODING 11
SWIDTH 571 0
DWIDTH 8 0
BBX 8 14 0 -2
BITMAP
00
00
3E
0E
1A
32
78
CC
CC
CC
CC
78
00
00
ENDCHAR

STARTCHAR female
ENCODING 12
SWIDTH 571 0
DWIDTH 8 0
BBX 8 14 0 -2
BITMAP
00
00
3C
66
66
66
66
3C
18
7E
18
18
00
00
ENDCHAR

STARTCHAR musicalnote
ENCODING 13
SWIDTH 571 0
DWIDTH 8 0
BBX 8 14 0 -2
BITMAP
00
00
7E
66
7E
60
60
60
60
60
E0
C0
00
00
ENDCHAR

STARTCHAR sun
ENCODING 15
SWIDTH 571 0
DWIDTH 8 0
BBX 8 14 0 -2
BITMAP
00
00
00
18
18
DB
3C
E7
3C
DB
18
18
00
00
ENDCHAR

STARTCHAR uni25B6
ENCODING 16
SWIDTH 571 0
DWIDTH 8 0
BBX 8 14 0 -2
BITMAP
00
40
60
70
78
7C
7E
7E
7C
78
70
60
40
00
ENDCHAR

STARTCHAR uni25C0
ENCODING 17
SWIDTH 571 0
DWIDTH 8 0
BBX 8 14 0 -2
BITMAP
00
02
06
0E
1E
3E
7E
7E
3E
1E
0E
06
02
00
ENDCHAR

STARTCHAR arrowupdn
ENCODING 18
SWIDTH 571 0
DWIDTH 8 0
BBX 8 14 0 -2
BITMAP
00
00
18
3C
7E
18
18
18
18
7E
3C
18
00
00
ENDCHAR

STARTCHAR exclamdbl
ENCODING 19
SWIDTH 571 0
DWIDTH 8 0
BBX 8 14 0 -2
BITMAP
00
00
66
66
66
66
66
66
66
00
66
66
00
00
ENDCHAR

STARTCHAR filledrect
ENCODING 22
SWIDTH 571 0
DWIDTH 8 0
BBX 8 14 0 -2
BITMAP
00
00
00
00
00
00
00
00
FE
FE
FE
FE
00
00
ENDCHAR

STARTCHAR arrowupdnbse
ENCODING 23
SWIDTH 571 0
DWIDTH 8 0
BBX 8 14 0 -2
BITMAP
00
00
18
3C
7E
18
18
18
18
7E
3C
18
7E
00
ENDCHAR

STARTCHAR arrowup
ENCODING 24
SWIDTH 571 0
DWIDTH 8 0
BBX 8 14 0 -2
BITMAP
00
00
18
3C
7E
18
18
18
18
18
18
18
00
00
ENDCHAR

STARTCHAR arrowdown
ENCODING 25
SWIDTH 571 0
DWIDTH 8 0
BBX 8 14 0 -2
BITMAP
00
00
18
18
18
18
18
18
18
7E
3C
18
00
00
ENDCHAR

STARTCHAR arrowright
ENCODING 26
SWIDTH 571 0
DWIDTH 8 0
BBX 8 14 0 -2
BITMAP
00
00
00
00
08
0C
FE
FE
0C
08
00
00
00
00
ENDCHAR

STARTCHAR arrowleft
ENCODING 27
SWIDTH 571 0
DWIDTH 8 0
BBX 8 14 0 -2
BITMAP
00
00
00
00
20
60
FE
FE
60
20
00
00
00
00
ENDCHAR

STARTCHAR orthogonal
ENCODING 28
SWIDTH 571 0
DWIDTH 8 0
BBX 8 14 0 -2
BITMAP
00
00
00
00
C0
C0
C0
C0
C0
FE
00
00
00
00
ENDCHAR

STARTCHAR arrowboth
ENCODING 29
SWIDTH 571 0
DWIDTH 8 0
BBX 8 14 0 -2
BITMAP
00
00
00
00
24
66
FF
FF
66
24
00
00
00
00
ENDCHAR

STARTCHAR triagup
ENCODING 30
SWIDTH 571 0
DWIDTH 8 0
BBX 8 14 0 -2
BITMAP
00
00
00
18
18
3C
3C
7E
7E
FF
FF
00
00
00
ENDCHAR

STARTCHAR triagdn
ENCODING 31
SWIDTH 571 0
DWIDTH 8 0
BBX 8 14 0 -2
BITMAP
00
00
00
FF
FF
7E
7E
3C
3C
18
18
00
00
00
ENDCHAR

STARTCHAR space
ENCODING 32
SWIDTH 571 0
DWIDTH 8 0
BBX 8 14 0 -2
BITMAP
00
00
00
00
00
00
00
00
00
00
00
00
00
00
ENDCHAR

STARTCHAR exclam
ENCODING 33
SWIDTH 571 0
DWIDTH 8 0
BBX 8 14 0 -2
BITMAP
00
00
18
18
18
18
18
18
18
00
18
18
00
00
ENDCHAR

STARTCHAR quotedbl
ENCODING 34
SWIDTH 571 0
DWIDTH 8 0
BBX 8 14 0 -2
BITMAP
00
66
66
66
00
00
00
00
00
00
00
00
00
00
ENDCHAR

STARTCHAR numbersign
ENCODING 35
SWIDTH 571 0
DWIDTH 8 0
BBX 8 14 0 -2
BITMAP
00
00
6C
6C
6C
FE
6C
6C
FE
6C
6C
6C
00
00
ENDCHAR

STARTCHAR dollar
ENCODING 36
SWIDTH 571 0
DWIDTH 8 0
BBX 8 14 0 -2
BITMAP
00
10
10
7C
D6
D0
D0
7C
16
16
D6
7C
10
10
ENDCHAR

STARTCHAR percent
ENCODING 37
SWIDTH 571 0
DWIDTH 8 0
BBX 8 14 0 -2
BITMAP
00
00
66
D6
6C
0C
18
18
30
36
6B
66
00
00
ENDCHAR

STARTCHAR ampersand
ENCODING 38
SWIDTH 571 0
DWIDTH 8 0
BBX 8 14 0 -2
BITMAP
00
00
38
6C
6C
38
76
DC
CC
CC
DC
76
00
00
ENDCHAR

STARTCHAR quotesingle
ENCODING 39
SWIDTH 571 0
DWIDTH 8 0
BBX 8 14 0 -2
BITMAP
00
18
18
30
00
00
00
00
00
00
00
00
00
00
ENDCHAR

STARTCHAR parenleft
ENCODING 40
SWIDTH 571 0
DWIDTH 8 0
BBX 8 14 0 -2
BITMAP
00
00
0C
18
30
30
30
30
30
30
18
0C
00
00
ENDCHAR

STARTCHAR parenright
ENCODING 41
SWIDTH 571 0
DWIDTH 8 0
BBX 8 14 0 -2
BITMAP
00
00
30
18
0C
0C
0C
0C
0C
0C
18
30
00
00
ENDCHAR

STARTCHAR asterisk
ENCODING 42
SWIDTH 571 0
DWIDTH 8 0
BBX 8 14 0 -2
BITMAP
00
00
00
00
00
6C
38
FE
38
6C
00
00
00
00
ENDCHAR

STARTCHAR plus
ENCODING 43
SWIDTH 571 0
DWIDTH 8 0
BBX 8 14 0 -2
BITMAP
00
00
00
00
00
18
18
7E
18
18
00
00
00
00
ENDCHAR

STARTCHAR comma
ENCODING 44
SWIDTH 571 0
DWIDTH 8 0
BBX 8 14 0 -2
BITMAP
00
00
00
00
00
00
00
00
00
00
18
18
30
00
ENDCHAR

STARTCHAR hyphen
ENCODING 45
SWIDTH 571 0
DWIDTH 8 0
BBX 8 14 0 -2
BITMAP
00
00
00
00
00
00
00
FE
00
00
00
00
00
00
ENDCHAR

STARTCHAR period
ENCODING 46
SWIDTH 571 0
DWIDTH 8 0
BBX 8 14 0 -2
BITMAP
00
00
00
00
00
00
00
00
00
00
18
18
00
00
ENDCHAR

STARTCHAR slash
ENCODING 47
SWIDTH 571 0
DWIDTH 8 0
BBX 8 14 0 -2
BITMAP
00
00
06
06
0C
0C
18
18
30
30
60
60
00
00
ENDCHAR

STARTCHAR zero
ENCODING 48
SWIDTH 571 0
DWIDTH 8 0
BBX 8 14 0 -2
BITMAP
00
00
7C
C6
C6
CE
DE
F6
E6
C6
C6
7C
00
00
ENDCHAR

STARTCHAR one
ENCODING 49
SWIDTH 571 0
DWIDTH 8 0
BBX 8 14 0 -2
BITMAP
00
00
18
38
78
18
18
18
18
18
18
7E
00
00
ENDCHAR

STARTCHAR two
ENCODING 50
SWIDTH 571 0
DWIDTH 8 0
BBX 8 14 0 -2
BITMAP
00
00
7C
C6
C6
06
0C
18
30
60
C0
FE
00
00
ENDCHAR

STARTCHAR three
ENCODING 51
SWIDTH 571 0
DWIDTH 8 0
BBX 8 14 0 -2
BITMAP
00
00
7C
C6
C6
06
3C
06
06
C6
C6
7C
00
00
ENDCHAR

STARTCHAR four
ENCODING 52
SWIDTH 571 0
DWIDTH 8 0
BBX 8 14 0 -2
BITMAP
00
00
06
0E
1E
36
66
C6
FE
06
06
06
00
00
ENDCHAR

STARTCHAR five
ENCODING 53
SWIDTH 571 0
DWIDTH 8 0
BBX 8 14 0 -2
BITMAP
00
00
FE
C0
C0
C0
FC
06
06
06
C6
7C
00
00
ENDCHAR

STARTCHAR six
ENCODING 54
SWIDTH 571 0
DWIDTH 8 0
BBX 8 14 0 -2
BITMAP
00
00
3C
60
C0
C0
FC
C6
C6
C6
C6
7C
00
00
ENDCHAR

STARTCHAR seven
ENCODING 55
SWIDTH 571 0
DWIDTH 8 0
BBX 8 14 0 -2
BITMAP
00
00
FE
06
06
0C
0C
18
18
30
30
30
00
00
ENDCHAR

STARTCHAR eight
ENCODING 56
SWIDTH 571 0
DWIDTH 8 0
BBX 8 14 0 -2
BITMAP
00
00
7C
C6
C6
C6
7C
C6
C6
C6
C6
7C
00
00
ENDCHAR

STARTCHAR nine
ENCODING 57
SWIDTH 571 0
DWIDTH 8 0
BBX 8 14 0 -2
BITMAP
00
00
7C
C6
C6
C6
C6
7E
06
06
0C
78
00
00
ENDCHAR

STARTCHAR colon
ENCODING 58
SWIDTH 571 0
DWIDTH 8 0
BBX 8 14 0 -2
BITMAP
00
00
00
00
00
18
18
00
00
00
18
18
00
00
ENDCHAR

STARTCHAR semicolon
ENCODING 59
SWIDTH 571 0
DWIDTH 8 0
BBX 8 14 0 -2
BITMAP
00
00
00
00
00
18
18
00
00
00
18
18
30
00
ENDCHAR

STARTCHAR less
ENCODING 60
SWIDTH 571 0
DWIDTH 8 0
BBX 8 14 0 -2
BITMAP
00
00
00
06
0C
18
30
60
30
18
0C
06
00
00
ENDCHAR

STARTCHAR equal
ENCODING 61
SWIDTH 571 0
DWIDTH 8 0
BBX 8 14 0 -2
BITMAP
00
00
00
00
00
FE
00
00
FE
00
00
00
00
00
ENDCHAR

STARTCHAR greater
ENCODING 62
SWIDTH 571 0
DWIDTH 8 0
BBX 8 14 0 -2
BITMAP
00
00
00
60
30
18
0C
06
0C
18
30
60
00
00
ENDCHAR

STARTCHAR question
ENCODING 63
SWIDTH 571 0
DWIDTH 8 0
BBX 8 14 0 -2
BITMAP
00
00
7C
C6
C6
C6
0C
18
18
00
18
18
00
00
ENDCHAR

STARTCHAR at
ENCODING 64
SWIDTH 571 0
DWIDTH 8 0
BBX 8 14 0 -2
BITMAP
00
00
7C
C6
CE
D6
D6
D6
D6
CE
C0
7E
00
00
ENDCHAR

STARTCHAR A
ENCODING 65
SWIDTH 571 0
DWIDTH 8 0
BBX 8 14 0 -2
BITMAP
00
00
7C
C6
C6
C6
C6
FE
C6
C6
C6
C6
00
00
ENDCHAR

STARTCHAR B
ENCODING 66
SWIDTH 571 0
DWIDTH 8 0
BBX 8 14 0 -2
BITMAP
00
00
FC
C6
C6
C6
FC
C6
C6
C6
C6
FC
00
00
ENDCHAR

STARTCHAR C
ENCODING 67
SWIDTH 571 0
DWIDTH 8 0
BBX 8 14 0 -2
BITMAP
00
00
7C
C6
C6
C0
C0
C0
C0
C6
C6
7C
00
00
ENDCHAR

STARTCHAR D
ENCODING 68
SWIDTH 571 0
DWIDTH 8 0
BBX 8 14 0 -2
BITMAP
00
00
F8
CC
C6
C6
C6
C6
C6
C6
CC
F8
00
00
ENDCHAR

STARTCHAR E
ENCODING 69
SWIDTH 571 0
DWIDTH 8 0
BBX 8 14 0 -2
BITMAP
00
00
FE
C0
C0
C0
F8
C0
C0
C0
C0
FE
00
00
ENDCHAR

STARTCHAR F
ENCODING 70
SWIDTH 571 0
DWIDTH 8 0
BBX 8 14 0 -2
BITMAP
00
00
FE
C0
C0
C0
F8
C0
C0
C0
C0
C0
00
00
ENDCHAR

STARTCHAR G
ENCODING 71
SWIDTH 571 0
DWIDTH 8 0
BBX 8 14 0 -2
BITMAP
00
00
7C
C6
C6
C0
C0
DE
C6
C6
C6
7C
00
00
ENDCHAR

STARTCHAR H
ENCODING 72
SWIDTH 571 0
DWIDTH 8 0
BBX 8 14 0 -2
BITMAP
00
00
C6
C6
C6
C6
FE
C6
C6
C6
C6
C6
00
00
ENDCHAR

STARTCHAR I
ENCODING 73
SWIDTH 571 0
DWIDTH 8 0
BBX 8 14 0 -2
BITMAP
00
00
3C
18
18
18
18
18
18
18
18
3C
00
00
ENDCHAR

STARTCHAR J
ENCODING 74
SWIDTH 571 0
DWIDTH 8 0
BBX 8 14 0 -2
BITMAP
00
00
1E
0C
0C
0C
0C
0C
0C
CC
CC
78
00
00
ENDCHAR

STARTCHAR K
ENCODING 75
SWIDTH 571 0
DWIDTH 8 0
BBX 8 14 0 -2
BITMAP
00
00
C6
C6
CC
D8
F0
F0
D8
CC
C6
C6
00
00
ENDCHAR

STARTCHAR L
ENCODING 76
SWIDTH 571 0
DWIDTH 8 0
BBX 8 14 0 -2
BITMAP
00
00
C0
C0
C0
C0
C0
C0
C0
C0
C0
FE
00
00
ENDCHAR

STARTCHAR M
ENCODING 77
SWIDTH 571 0
DWIDTH 8 0
BBX 8 14 0 -2
BITMAP
00
00
82
C6
EE
FE
D6
C6
C6
C6
C6
C6
00
00
ENDCHAR

STARTCHAR N
ENCODING 78
SWIDTH 571 0
DWIDTH 8 0
BBX 8 14 0 -2
BITMAP
00
00
C6
C6
C6
E6
F6
DE
CE
C6
C6
C6
00
00
ENDCHAR

STARTCHAR O
ENCODING 79
SWIDTH 571 0
DWIDTH 8 0
BBX 8 14 0 -2
BITMAP
00
00
7C
C6
C6
C6
C6
C6
C6
C6
C6
7C
00
00
ENDCHAR

STARTCHAR P
ENCODING 80
SWIDTH 571 0
DWIDTH 8 0
BBX 8 14 0 -2
BITMAP
00
00
FC
C6
C6
C6
C6
FC
C0
C0
C0
C0
00
00
ENDCHAR

STARTCHAR Q
ENCODING 81
SWIDTH 571 0
DWIDTH 8 0
BBX 8 14 0 -2
BITMAP
00
00
7C
C6
C6
C6
C6
C6
C6
C6
DE
7C
06
00
ENDCHAR

STARTCHAR R
ENCODING 82
SWIDTH 571 0
DWIDTH 8 0
BBX 8 14 0 -2
BITMAP
00
00
FC
C6
C6
C6
C6
FC
F0
D8
CC
C6
00
00
ENDCHAR

STARTCHAR S
ENCODING 83
SWIDTH 571 0
DWIDTH 8 0
BBX 8 14 0 -2
BITMAP
00
00
7C
C6
C0
C0
7C
06
06
C6
C6
7C
00
00
ENDCHAR

STARTCHAR T
ENCODING 84
SWIDTH 571 0
DWIDTH 8 0
BBX 8 14 0 -2
BITMAP
00
00
FF
18
18
18
18
18
18
18
18
18
00
00
ENDCHAR

STARTCHAR U
ENCODING 85
SWIDTH 571 0
DWIDTH 8 0
BBX 8 14 0 -2
BITMAP
00
00
C6
C6
C6
C6
C6
C6
C6
C6
C6
7C
00
00
ENDCHAR

STARTCHAR V
ENCODING 86
SWIDTH 571 0
DWIDTH 8 0
BBX 8 14 0 -2
BITMAP
00
00
C6
C6
C6
C6
C6
6C
6C
6C
38
38
00
00
ENDCHAR

STARTCHAR W
ENCODING 87
SWIDTH 571 0
DWIDTH 8 0
BBX 8 14 0 -2
BITMAP
00
00
C6
C6
C6
C6
C6
D6
FE
EE
C6
82
00
00
ENDCHAR

STARTCHAR X
ENCODING 88
SWIDTH 571 0
DWIDTH 8 0
BBX 8 14 0 -2
BITMAP
00
00
C6
C6
6C
6C
38
38
6C
6C
C6
C6
00
00
ENDCHAR

STARTCHAR Y
ENCODING 89
SWIDTH 571 0
DWIDTH 8 0
BBX 8 14 0 -2
BITMAP
00
00
C3
C3
66
66
3C
18
18
18
18
18
00
00
ENDCHAR

STARTCHAR Z
ENCODING 90
SWIDTH 571 0
DWIDTH 8 0
BBX 8 14 0 -2
BITMAP
00
00
FE
06
06
0C
18
30
60
C0
C0
FE
00
00
ENDCHAR

STARTCHAR bracketleft
ENCODING 91
SWIDTH 571 0
DWIDTH 8 0
BBX 8 14 0 -2
BITMAP
00
00
3C
30
30
30
30
30
30
30
30
3C
00
00
ENDCHAR

STARTCHAR backslash
ENCODING 92
SWIDTH 571 0
DWIDTH 8 0
BBX 8 14 0 -2
BITMAP
00
00
60
60
30
30
18
18
0C
0C
06
06
00
00
ENDCHAR

STARTCHAR bracketright
ENCODING 93
SWIDTH 571 0
DWIDTH 8 0
BBX 8 14 0 -2
BITMAP
00
00
3C
0C
0C
0C
0C
0C
0C
0C
0C
3C
00
00
ENDCHAR

STARTCHAR asciicircum
ENCODING 94
SWIDTH 571 0
DWIDTH 8 0
BBX 8 14 0 -2
BITMAP
00
18
3C
66
00
00
00
00
00
00
00
00
00
00
ENDCHAR

STARTCHAR underscore
ENCODING 95
SWIDTH 571 0
DWIDTH 8 0
BBX 8 14 0 -2
BITMAP
00
00
00
00
00
00
00
00
00
00
00
00
FE
00
ENDCHAR

STARTCHAR grave
ENCODING 96
SWIDTH 571 0
DWIDTH 8 0
BBX 8 14 0 -2
BITMAP
00
30
30
18
00
00
00
00
00
00
00
00
00
00
ENDCHAR

STARTCHAR a
ENCODING 97
SWIDTH 571 0
DWIDTH 8 0
BBX 8 14 0 -2
BITMAP
00
00
00
00
00
7C
06
7E
C6
C6
C6
7E
00
00
ENDCHAR

STARTCHAR b
ENCODING 98
SWIDTH 571 0
DWIDTH 8 0
BBX 8 14 0 -2
BITMAP
00
00
C0
C0
C0
FC
C6
C6
C6
C6
C6
FC
00
00
ENDCHAR

STARTCHAR c
ENCODING 99
SWIDTH 571 0
DWIDTH 8 0
BBX 8 14 0 -2
BITMAP
00
00
00
00
00
7C
C6
C0
C0
C0
C6
7C
00
00
ENDCHAR

STARTCHAR d
ENCODING 100
SWIDTH 571 0
DWIDTH 8 0
BBX 8 14 0 -2
BITMAP
00
00
06
06
06
7E
C6
C6
C6
C6
C6
7E
00
00
ENDCHAR

STARTCHAR e
ENCODING 101
SWIDTH 571 0
DWIDTH 8 0
BBX 8 14 0 -2
BITMAP
00
00
00
00
00
7C
C6
C6
FE
C0
C0
7C
00
00
ENDCHAR

STARTCHAR f
ENCODING 102
SWIDTH 571 0
DWIDTH 8 0
BBX 8 14 0 -2
BITMAP
00
00
1E
30
30
FC
30
30
30
30
30
30
00
00
ENDCHAR

STARTCHAR g
ENCODING 103
SWIDTH 571 0
DWIDTH 8 0
BBX 8 14 0 -2
BITMAP
00
00
00
00
00
7E
C6
C6
C6
C6
C6
7E
06
7C
ENDCHAR

STARTCHAR h
ENCODING 104
SWIDTH 571 0
DWIDTH 8 0
BBX 8 14 0 -2
BITMAP
00
00
C0
C0
C0
FC
C6
C6
C6
C6
C6
C6
00
00
ENDCHAR

STARTCHAR i
ENCODING 105
SWIDTH 571 0
DWIDTH 8 0
BBX 8 14 0 -2
BITMAP
00
00
18
18
00
38
18
18
18
18
18
3C
00
00
ENDCHAR

STARTCHAR j
ENCODING 106
SWIDTH 571 0
DWIDTH 8 0
BBX 8 14 0 -2
BITMAP
00
00
06
06
00
0E
06
06
06
06
06
66
66
3C
ENDCHAR

STARTCHAR k
ENCODING 107
SWIDTH 571 0
DWIDTH 8 0
BBX 8 14 0 -2
BITMAP
00
00
C0
C0
C0
C6
CC
D8
F0
D8
CC
C6
00
00
ENDCHAR

STARTCHAR l
ENCODING 108
SWIDTH 571 0
DWIDTH 8 0
BBX 8 14 0 -2
BITMAP
00
00
38
18
18
18
18
18
18
18
18
3C
00
00
ENDCHAR

STARTCHAR m
ENCODING 109
SWIDTH 571 0
DWIDTH 8 0
BBX 8 14 0 -2
BITMAP
00
00
00
00
00
FC
D6
D6
D6
D6
D6
D6
00
00
ENDCHAR

STARTCHAR n
ENCODING 110
SWIDTH 571 0
DWIDTH 8 0
BBX 8 14 0 -2
BITMAP
00
00
00
00
00
FC
C6
C6
C6
C6
C6
C6
00
00
ENDCHAR

STARTCHAR o
ENCODING 111
SWIDTH 571 0
DWIDTH 8 0
BBX 8 14 0 -2
BITMAP
00
00
00
00
00
7C
C6
C6
C6
C6
C6
7C
00
00
ENDCHAR

STARTCHAR p
ENCODING 112
SWIDTH 571 0
DWIDTH 8 0
BBX 8 14 0 -2
BITMAP
00
00
00
00
00
FC
C6
C6
C6
C6
C6
FC
C0
C0
ENDCHAR

STARTCHAR q
ENCODING 113
SWIDTH 571 0
DWIDTH 8 0
BBX 8 14 0 -2
BITMAP
00
00
00
00
00
7E
C6
C6
C6
C6
C6
7E
06
06
ENDCHAR

STARTCHAR r
ENCODING 114
SWIDTH 571 0
DWIDTH 8 0
BBX 8 14 0 -2
BITMAP
00
00
00
00
00
DE
F0
E0
C0
C0
C0
C0
00
00
ENDCHAR

STARTCHAR s
ENCODING 115
SWIDTH 571 0
DWIDTH 8 0
BBX 8 14 0 -2
BITMAP
00
00
00
00
00
7E
C0
C0
7C
06
06
FC
00
00
ENDCHAR

STARTCHAR t
ENCODING 116
SWIDTH 571 0
DWIDTH 8 0
BBX 8 14 0 -2
BITMAP
00
00
30
30
30
FC
30
30
30
30
30
1E
00
00
ENDCHAR

STARTCHAR u
ENCODING 117
SWIDTH 571 0
DWIDTH 8 0
BBX 8 14 0 -2
BITMAP
00
00
00
00
00
C6
C6
C6
C6
C6
C6
7E
00
00
ENDCHAR

STARTCHAR v
ENCODING 118
SWIDTH 571 0
DWIDTH 8 0
BBX 8 14 0 -2
BITMAP
00
00
00
00
00
C6
C6
C6
6C
6C
38
38
00
00
ENDCHAR

STARTCHAR w
ENCODING 119
SWIDTH 571 0
DWIDTH 8 0
BBX 8 14 0 -2
BITMAP
00
00
00
00
00
C6
C6
D6
D6
D6
D6
7C
00
00
ENDCHAR

STARTCHAR x
ENCODING 120
SWIDTH 571 0
DWIDTH 8 0
BBX 8 14 0 -2
BITMAP
00
00
00
00
00
C6
C6
6C
38
6C
C6
C6
00
00
ENDCHAR

STARTCHAR y
ENCODING 121
SWIDTH 571 0
DWIDTH 8 0
BBX 8 14 0 -2
BITMAP
00
00
00
00
00
C6
C6
C6
C6
C6
C6
7E
06
7C
ENDCHAR

STARTCHAR z
ENCODING 122
SWIDTH 571 0
DWIDTH 8 0
BBX 8 14 0 -2
BITMAP
00
00
00
00
00
FE
0C
18
30
60
C0
FE
00
00
ENDCHAR

STARTCHAR braceleft
ENCODING 123
SWIDTH 571 0
DWIDTH 8 0
BBX 8 14 0 -2
BITMAP
00
00
1C
30
30
30
60
30
30
30
30
1C
00
00
ENDCHAR

STARTCHAR bar
ENCODING 124
SWIDTH 571 0
DWIDTH 8 0
BBX 8 14 0 -2
BITMAP
00
00
18
18
18
18
18
18
18
18
18
18
00
00
ENDCHAR

STARTCHAR braceright
ENCODING 125
SWIDTH 571 0
DWIDTH 8 0
BBX 8 14 0 -2
BITMAP
00
00
70
18
18
18
0C
18
18
18
18
70
00
00
ENDCHAR

STARTCHAR asciitilde
ENCODING 126
SWIDTH 571 0
DWIDTH 8 0
BBX 8 14 0 -2
BITMAP
00
73
DB
CE
00
00
00
00
00
00
00
00
00
00
ENDCHAR

STARTCHAR house
ENCODING 127
SWIDTH 571 0
DWIDTH 8 0
BBX 8 14 0 -2
BITMAP
00
00
00
00
10
38
6C
C6
C6
C6
FE
00
00
00
ENDCHAR

STARTCHAR Ccedilla
ENCODING 128
SWIDTH 571 0
DWIDTH 8 0
BBX 8 14 0 -2
BITMAP
00
00
7C
C6
C6
C0
C0
C0
C0
C6
C6
7C
30
60
ENDCHAR

STARTCHAR udieresis
ENCODING 129
SWIDTH 571 0
DWIDTH 8 0
BBX 8 14 0 -2
BITMAP
00
00
6C
6C
00
C6
C6
C6
C6
C6
C6
7E
00
00
ENDCHAR

STARTCHAR eacute
ENCODING 130
SWIDTH 571 0
DWIDTH 8 0
BBX 8 14 0 -2
BITMAP
00
00
0C
18
00
7C
C6
C6
FE
C0
C0
7C
00
00
ENDCHAR

STARTCHAR acircumflex
ENCODING 131
SWIDTH 571 0
DWIDTH 8 0
BBX 8 14 0 -2
BITMAP
00
00
38
6C
00
7C
06
7E
C6
C6
C6
7E
00
00
ENDCHAR

STARTCHAR adieresis
ENCODING 132
SWIDTH 571 0
DWIDTH 8 0
BBX 8 14 0 -2
BITMAP
00
00
6C
6C
00
7C
06
7E
C6
C6
C6
7E
00
00
ENDCHAR

STARTCHAR agrave
ENCODING 133
SWIDTH 571 0
DWIDTH 8 0
BBX 8 14 0 -2
BITMAP
00
00
60
30
00
7C
06
7E
C6
C6
C6
7E
00
00
ENDCHAR

STARTCHAR aring
ENCODING 134
SWIDTH 571 0
DWIDTH 8 0
BBX 8 14 0 -2
BITMAP
00
00
38
6C
38
7C
06
7E
C6
C6
C6
7E
00
00
ENDCHAR

STARTCHAR ccedilla
ENCODING 135
SWIDTH 571 0
DWIDTH 8 0
BBX 8 14 0 -2
BITMAP
00
00
00
00
00
7C
C6
C0
C0
C0
C6
7C
30
60
ENDCHAR

STARTCHAR ecircumflex
ENCODING 136
SWIDTH 571 0
DWIDTH 8 0
BBX 8 14 0 -2
BITMAP
00
00
38
6C
00
7C
C6
C6
FE
C0
C0
7C
00
00
ENDCHAR

STARTCHAR edieresis
ENCODING 137
SWIDTH 571 0
DWIDTH 8 0
BBX 8 14 0 -2
BITMAP
00
00
6C
6C
00
7C
C6
C6
FE
C0
C0
7C
00
00
ENDCHAR

STARTCHAR egrave
ENCODING 138
SWIDTH 571 0
DWIDTH 8 0
BBX 8 14 0 -2
BITMAP
00
00
60
30
00
7C
C6
C6
FE
C0
C0
7C
00
00
ENDCHAR

STARTCHAR idieresis
ENCODING 139
SWIDTH 571 0
DWIDTH 8 0
BBX 8 14 0 -2
BITMAP
00
00
6C
6C
00
38
18
18
18
18
18
3C
00
00
ENDCHAR

STARTCHAR icircumflex
ENCODING 140
SWIDTH 571 0
DWIDTH 8 0
BBX 8 14 0 -2
BITMAP
00
00
38
6C
00
38
18
18
18
18
18
3C
00
00
ENDCHAR

STARTCHAR igrave
ENCODING 141
SWIDTH 571 0
DWIDTH 8 0
BBX 8 14 0 -2
BITMAP
00
00
30
18
00
38
18
18
18
18
18
3C
00
00
ENDCHAR

STARTCHAR Adieresis
ENCODING 142
SWIDTH 571 0
DWIDTH 8 0
BBX 8 14 0 -2
BITMAP
6C
6C
00
7C
C6
C6
C6
FE
C6
C6
C6
C6
00
00
ENDCHAR

STARTCHAR Aring
ENCODING 143
SWIDTH 571 0
DWIDTH 8 0
BBX 8 14 0 -2
BITMAP
38
6C
38
7C
C6
C6
C6
FE
C6
C6
C6
C6
00
00
ENDCHAR

STARTCHAR Eacute
ENCODING 144
SWIDTH 571 0
DWIDTH 8 0
BBX 8 14 0 -2
BITMAP
0C
18
00
FE
C0
C0
C0
F8
C0
C0
C0
FE
00
00
ENDCHAR

STARTCHAR ae
ENCODING 145
SWIDTH 571 0
DWIDTH 8 0
BBX 8 14 0 -2
BITMAP
00
00
00
00
00
6C
16
16
7E
D0
D0
6C
00
00
ENDCHAR

STARTCHAR AE
ENCODING 146
SWIDTH 571 0
DWIDTH 8 0
BBX 8 14 0 -2
BITMAP
00
00
7E
D8
D8
D8
FE
D8
D8
D8
D8
DE
00
00
ENDCHAR

STARTCHAR ocircumflex
ENCODING 147
SWIDTH 571 0
DWIDTH 8 0
BBX 8 14 0 -2
BITMAP
00
00
38
6C
00
7C
C6
C6
C6
C6
C6
7C
00
00
ENDCHAR

STARTCHAR odieresis
ENCODING 148
SWIDTH 571 0
DWIDTH 8 0
BBX 8 14 0 -2
BITMAP
00
00
6C
6C
00
7C
C6
C6
C6
C6
C6
7C
00
00
ENDCHAR

STARTCHAR ograve
ENCODING 149
SWIDTH 571 0
DWIDTH 8 0
BBX 8 14 0 -2
BITMAP
00
00
60
30
00
7C
C6
C6
C6
C6
C6
7C
00
00
ENDCHAR

STARTCHAR ucircumflex
ENCODING 150
SWIDTH 571 0
DWIDTH 8 0
BBX 8 14 0 -2
BITMAP
00
00
38
6C
00
C6
C6
C6
C6
C6
C6
7E
00
00
ENDCHAR

STARTCHAR ugrave
ENCODING 151
SWIDTH 571 0
DWIDTH 8 0
BBX 8 14 0 -2
BITMAP
00
00
60
30
00
C6
C6
C6
C6
C6
C6
7E
00
00
ENDCHAR

STARTCHAR ydieresis
ENCODING 152
SWIDTH 571 0
DWIDTH 8 0
BBX 8 14 0 -2
BITMAP
00
00
6C
6C
00
C6
C6
C6
C6
C6
C6
7E
06
7C
ENDCHAR

STARTCHAR Odieresis
ENCODING 153
SWIDTH 571 0
DWIDTH 8 0
BBX 8 14 0 -2
BITMAP
6C
6C
00
7C
C6
C6
C6
C6
C6
C6
C6
7C
00
00
ENDCHAR

STARTCHAR Udieresis
ENCODING 154
SWIDTH 571 0
DWIDTH 8 0
BBX 8 14 0 -2
BITMAP
6C
6C
00
C6
C6
C6
C6
C6
C6
C6
C6
7C
00
00
ENDCHAR

STARTCHAR oslash
ENCODING 155
SWIDTH 571 0
DWIDTH 8 0
BBX 8 14 0 -2
BITMAP
00
00
00
00
00
3D
67
6E
7E
76
E6
BC
00
00
ENDCHAR

STARTCHAR sterling
ENCODING 156
SWIDTH 571 0
DWIDTH 8 0
BBX 8 14 0 -2
BITMAP
00
00
38
6C
60
60
F8
60
60
60
66
FE
00
00
ENDCHAR

STARTCHAR Oslash
ENCODING 157
SWIDTH 571 0
DWIDTH 8 0
BBX 8 14 0 -2
BITMAP
00
00
3D
67
66
6E
7E
76
66
66
E6
BC
00
00
ENDCHAR

STARTCHAR multiply
ENCODING 158
SWIDTH 571 0
DWIDTH 8 0
BBX 8 14 0 -2
BITMAP
00
00
00
00
00
C6
6C
38
6C
C6
00
00
00
00
ENDCHAR

STARTCHAR florin
ENCODING 159
SWIDTH 571 0
DWIDTH 8 0
BBX 8 14 0 -2
BITMAP
00
00
0E
1B
18
18
7E
18
18
18
18
18
D8
70
ENDCHAR

STARTCHAR aacute
ENCODING 160
SWIDTH 571 0
DWIDTH 8 0
BBX 8 14 0 -2
BITMAP
00
00
0C
18
00
7C
06
7E
C6
C6
C6
7E
00
00
ENDCHAR

STARTCHAR iacute
ENCODING 161
SWIDTH 571 0
DWIDTH 8 0
BBX 8 14 0 -2
BITMAP
00
00
0C
18
00
38
18
18
18
18
18
3C
00
00
ENDCHAR

STARTCHAR oacute
ENCODING 162
SWIDTH 571 0
DWIDTH 8 0
BBX 8 14 0 -2
BITMAP
00
00
0C
18
00
7C
C6
C6
C6
C6
C6
7C
00
00
ENDCHAR

STARTCHAR uacute
ENCODING 163
SWIDTH 571 0
DWIDTH 8 0
BBX 8 14 0 -2
BITMAP
00
00
0C
18
00
C6
C6
C6
C6
C6
C6
7E
00
00
ENDCHAR

STARTCHAR ntilde
ENCODING 164
SWIDTH 571 0
DWIDTH 8 0
BBX 8 14 0 -2
BITMAP
00
00
76
DC
00
FC
C6
C6
C6
C6
C6
C6
00
00
ENDCHAR

STARTCHAR Ntilde
ENCODING 165
SWIDTH 571 0
DWIDTH 8 0
BBX 8 14 0 -2
BITMAP
76
DC
00
C6
C6
E6
F6
DE
CE
C6
C6
C6
00
00
ENDCHAR

STARTCHAR ordfeminine
ENCODING 166
SWIDTH 571 0
DWIDTH 8 0
BBX 8 14 0 -2
BITMAP
00
3C
06
3E
66
3E
00
7E
00
00
00
00
00
00
ENDCHAR

STARTCHAR ordmasculine
ENCODING 167
SWIDTH 571 0
DWIDTH 8 0
BBX 8 14 0 -2
BITMAP
00
3C
66
66
66
3C
00
7E
00
00
00
00
00
00
ENDCHAR

STARTCHAR questiondown
ENCODING 168
SWIDTH 571 0
DWIDTH 8 0
BBX 8 14 0 -2
BITMAP
00
00
30
30
00
30
30
60
C6
C6
C6
7C
00
00
ENDCHAR

STARTCHAR registered
ENCODING 169
SWIDTH 571 0
DWIDTH 8 0
BBX 8 14 0 -2
BITMAP
00
00
00
7E
81
B9
A5
B9
A9
A5
81
7E
00
00
ENDCHAR

STARTCHAR logicalnot
ENCODING 170
SWIDTH 571 0
DWIDTH 8 0
BBX 8 14 0 -2
BITMAP
00
00
00
00
00
FE
06
06
06
00
00
00
00
00
ENDCHAR

STARTCHAR onehalf
ENCODING 171
SWIDTH 571 0
DWIDTH 8 0
BBX 8 14 0 -2
BITMAP
60
E0
62
66
6C
18
30
60
DC
B6
0C
18
3E
00
ENDCHAR

STARTCHAR onequarter
ENCODING 172
SWIDTH 571 0
DWIDTH 8 0
BBX 8 14 0 -2
BITMAP
60
E0
62
66
6C
18
30
66
CE
9A
3E
06
06
00
ENDCHAR

STARTCHAR exclamdown
ENCODING 173
SWIDTH 571 0
DWIDTH 8 0
BBX 8 14 0 -2
BITMAP
00
00
18
18
00
18
18
18
18
18
18
18
00
00
ENDCHAR

STARTCHAR guillemotleft
ENCODING 174
SWIDTH 571 0
DWIDTH 8 0
BBX 8 14 0 -2
BITMAP
00
00
00
00
00
1B
36
6C
D8
6C
36
1B
00
00
ENDCHAR

STARTCHAR guillemotright
ENCODING 175
SWIDTH 571 0
DWIDTH 8 0
BBX 8 14 0 -2
BITMAP
00
00
00
00
00
D8
6C
36
1B
36
6C
D8
00
00
ENDCHAR

STARTCHAR ltshade
ENCODING 176
SWIDTH 571 0
DWIDTH 8 0
BBX 8 14 0 -2
BITMAP
88
22
88
22
88
22
88
22
88
22
88
22
88
22
ENDCHAR

STARTCHAR shade
ENCODING 177
SWIDTH 571 0
DWIDTH 8 0
BBX 8 14 0 -2
BITMAP
AA
55
AA
55
AA
55
AA
55
AA
55
AA
55
AA
55
ENDCHAR

STARTCHAR dkshade
ENCODING 178
SWIDTH 571 0
DWIDTH 8 0
BBX 8 14 0 -2
BITMAP
EE
BB
EE
BB
EE
BB
EE
BB
EE
BB
EE
BB
EE
BB
ENDCHAR

STARTCHAR SF110000
ENCODING 179
SWIDTH 571 0
DWIDTH 8 0
BBX 8 14 0 -2
BITMAP
18
18
18
18
18
18
18
18
18
18
18
18
18
18
ENDCHAR

STARTCHAR SF090000
ENCODING 180
SWIDTH 571 0
DWIDTH 8 0
BBX 8 14 0 -2
BITMAP
18
18
18
18
18
18
F8
F8
18
18
18
18
18
18
ENDCHAR

STARTCHAR Aacute
ENCODING 181
SWIDTH 571 0
DWIDTH 8 0
BBX 8 14 0 -2
BITMAP
0C
18
00
7C
C6
C6
C6
FE
C6
C6
C6
C6
00
00
ENDCHAR

STARTCHAR Acircumflex
ENCODING 182
SWIDTH 571 0
DWIDTH 8 0
BBX 8 14 0 -2
BITMAP
38
6C
00
7C
C6
C6
C6
FE
C6
C6
C6
C6
00
00
ENDCHAR

STARTCHAR Agrave
ENCODING 183
SWIDTH 571 0
DWIDTH 8 0
BBX 8 14 0 -2
BITMAP
60
30
00
7C
C6
C6
C6
FE
C6
C6
C6
C6
00
00
ENDCHAR

STARTCHAR copyright
ENCODING 184
SWIDTH 571 0
DWIDTH 8 0
BBX 8 14 0 -2
BITMAP
00
00
00
7E
81
99
A5
A1
A5
99
81
7E
00
00
ENDCHAR

STARTCHAR SF230000
ENCODING 185
SWIDTH 571 0
DWIDTH 8 0
BBX 8 14 0 -2
BITMAP
6C
6C
6C
6C
EC
EC
0C
EC
EC
6C
6C
6C
6C
6C
ENDCHAR

STARTCHAR SF240000
ENCODING 186
SWIDTH 571 0
DWIDTH 8 0
BBX 8 14 0 -2
BITMAP
6C
6C
6C
6C
6C
6C
6C
6C
6C
6C
6C
6C
6C
6C
ENDCHAR

STARTCHAR SF250000
ENCODING 187
SWIDTH 571 0
DWIDTH 8 0
BBX 8 14 0 -2
BITMAP
00
00
00
00
FC
FC
0C
EC
EC
6C
6C
6C
6C
6C
ENDCHAR

STARTCHAR SF260000
ENCODING 188
SWIDTH 571 0
DWIDTH 8 0
BBX 8 14 0 -2
BITMAP
6C
6C
6C
6C
EC
EC
0C
FC
FC
00
00
00
00
00
ENDCHAR

STARTCHAR cent
ENCODING 189
SWIDTH 571 0
DWIDTH 8 0
BBX 8 14 0 -2
BITMAP
00
00
00
10
10
7C
D6
D0
D0
D0
D6
7C
10
10
ENDCHAR

STARTCHAR yen
ENCODING 190
SWIDTH 571 0
DWIDTH 8 0
BBX 8 14 0 -2
BITMAP
00
00
C3
C3
66
3C
18
7E
18
7E
18
18
00
00
ENDCHAR

STARTCHAR SF030000
ENCODING 191
SWIDTH 571 0
DWIDTH 8 0
BBX 8 14 0 -2
BITMAP
00
00
00
00
00
00
F8
F8
18
18
18
18
18
18
ENDCHAR

STARTCHAR SF020000
ENCODING 192
SWIDTH 571 0
DWIDTH 8 0
BBX 8 14 0 -2
BITMAP
18
18
18
18
18
18
1F
1F
00
00
00
00
00
00
ENDCHAR

STARTCHAR SF070000
ENCODING 193
SWIDTH 571 0
DWIDTH 8 0
BBX 8 14 0 -2
BITMAP
18
18
18
18
18
18
FF
FF
00
00
00
00
00
00
ENDCHAR

STARTCHAR SF060000
ENCODING 194
SWIDTH 571 0
DWIDTH 8 0
BBX 8 14 0 -2
BITMAP
00
00
00
00
00
00
FF
FF
18
18
18
18
18
18
ENDCHAR

STARTCHAR SF080000
ENCODING 195
SWIDTH 571 0
DWIDTH 8 0
BBX 8 14 0 -2
BITMAP
18
18
18
18
18
18
1F
1F
18
18
18
18
18
18
ENDCHAR

STARTCHAR SF100000
ENCODING 196
SWIDTH 571 0
DWIDTH 8 0
BBX 8 14 0 -2
BITMAP
00
00
00
00
00
00
FF
FF
00
00
00
00
00
00
ENDCHAR

STARTCHAR SF050000
ENCODING 197
SWIDTH 571 0
DWIDTH 8 0
BBX 8 14 0 -2
BITMAP
18
18
18
18
18
18
FF
FF
18
18
18
18
18
18
ENDCHAR

STARTCHAR atilde
ENCODING 198
SWIDTH 571 0
DWIDTH 8 0
BBX 8 14 0 -2
BITMAP
00
00
76
DC
00
7C
06
7E
C6
C6
C6
7E
00
00
ENDCHAR

STARTCHAR Atilde
ENCODING 199
SWIDTH 571 0
DWIDTH 8 0
BBX 8 14 0 -2
BITMAP
76
DC
00
7C
C6
C6
C6
FE
C6
C6
C6
C6
00
00
ENDCHAR

STARTCHAR SF380000
ENCODING 200
SWIDTH 571 0
DWIDTH 8 0
BBX 8 14 0 -2
BITMAP
6C
6C
6C
6C
6F
6F
60
7F
7F
00
00
00
00
00
ENDCHAR

STARTCHAR SF390000
ENCODING 201
SWIDTH 571 0
DWIDTH 8 0
BBX 8 14 0 -2
BITMAP
00
00
00
00
7F
7F
60
6F
6F
6C
6C
6C
6C
6C
ENDCHAR

STARTCHAR SF400000
ENCODING 202
SWIDTH 571 0
DWIDTH 8 0
BBX 8 14 0 -2
BITMAP
6C
6C
6C
6C
EF
EF
00
FF
FF
00
00
00
00
00
ENDCHAR

STARTCHAR SF410000
ENCODING 203
SWIDTH 571 0
DWIDTH 8 0
BBX 8 14 0 -2
BITMAP
00
00
00
00
FF
FF
00
EF
EF
6C
6C
6C
6C
6C
ENDCHAR

STARTCHAR SF420000
ENCODING 204
SWIDTH 571 0
DWIDTH 8 0
BBX 8 14 0 -2
BITMAP
6C
6C
6C
6C
6F
6F
60
6F
6F
6C
6C
6C
6C
6C
ENDCHAR

STARTCHAR SF430000
ENCODING 205
SWIDTH 571 0
DWIDTH 8 0
BBX 8 14 0 -2
BITMAP
00
00
00
00
FF
FF
00
FF
FF
00
00
00
00
00
ENDCHAR

STARTCHAR SF440000
ENCODING 206
SWIDTH 571 0
DWIDTH 8 0
BBX 8 14 0 -2
BITMAP
6C
6C
6C
6C
EF
EF
00
EF
EF
6C
6C
6C
6C
6C
ENDCHAR

STARTCHAR currency
ENCODING 207
SWIDTH 571 0
DWIDTH 8 0
BBX 8 14 0 -2
BITMAP
00
00
00
00
66
3C
66
66
66
3C
66
00
00
00
ENDCHAR

STARTCHAR eth
ENCODING 208
SWIDTH 571 0
DWIDTH 8 0
BBX 8 14 0 -2
BITMAP
00
00
68
30
58
7C
C6
C6
C6
C6
C6
7C
00
00
ENDCHAR

STARTCHAR Eth
ENCODING 209
SWIDTH 571 0
DWIDTH 8 0
BBX 8 14 0 -2
BITMAP
00
00
78
6C
66
66
F6
66
66
66
6C
78
00
00
ENDCHAR

STARTCHAR Ecircumflex
ENCODING 210
SWIDTH 571 0
DWIDTH 8 0
BBX 8 14 0 -2
BITMAP
38
6C
00
FE
C0
C0
C0
F8
C0
C0
C0
FE
00
00
ENDCHAR

STARTCHAR Edieresis
ENCODING 211
SWIDTH 571 0
DWIDTH 8 0
BBX 8 14 0 -2
BITMAP
6C
6C
00
FE
C0
C0
C0
F8
C0
C0
C0
FE
00
00
ENDCHAR

STARTCHAR Egrave
ENCODING 212
SWIDTH 571 0
DWIDTH 8 0
BBX 8 14 0 -2
BITMAP
60
30
00
FE
C0
C0
C0
F8
C0
C0
C0
FE
00
00
ENDCHAR

STARTCHAR dotlessi
ENCODING 213
SWIDTH 571 0
DWIDTH 8 0
BBX 8 14 0 -2
BITMAP
00
00
00
00
00
38
18
18
18
18
18
3C
00
00
ENDCHAR

STARTCHAR Iacute
ENCODING 214
SWIDTH 571 0
DWIDTH 8 0
BBX 8 14 0 -2
BITMAP
0C
18
00
3C
18
18
18
18
18
18
18
3C
00
00
ENDCHAR

STARTCHAR Icircumflex
ENCODING 215
SWIDTH 571 0
DWIDTH 8 0
BBX 8 14 0 -2
BITMAP
38
6C
00
3C
18
18
18
18
18
18
18
3C
00
00
ENDCHAR

STARTCHAR Idieresis
ENCODING 216
SWIDTH 571 0
DWIDTH 8 0
BBX 8 14 0 -2
BITMAP
66
66
00
3C
18
18
18
18
18
18
18
3C
00
00
ENDCHAR

STARTCHAR SF040000
ENCODING 217
SWIDTH 571 0
DWIDTH 8 0
BBX 8 14 0 -2
BITMAP
18
18
18
18
18
18
F8
F8
00
00
00
00
00
00
ENDCHAR

STARTCHAR SF010000
ENCODING 218
SWIDTH 571 0
DWIDTH 8 0
BBX 8 14 0 -2
BITMAP
00
00
00
00
00
00
1F
1F
18
18
18
18
18
18
ENDCHAR

STARTCHAR block
ENCODING 219
SWIDTH 571 0
DWIDTH 8 0
BBX 8 14 0 -2
BITMAP
FF
FF
FF
FF
FF
FF
FF
FF
FF
FF
FF
FF
FF
FF
ENDCHAR

STARTCHAR dnblock
ENCODING 220
SWIDTH 571 0
DWIDTH 8 0
BBX 8 14 0 -2
BITMAP
00
00
00
00
00
00
00
FF
FF
FF
FF
FF
FF
FF
ENDCHAR

STARTCHAR brokenbar
ENCODING 221
SWIDTH 571 0
DWIDTH 8 0
BBX 8 14 0 -2
BITMAP
00
00
18
18
18
18
00
00
18
18
18
18
00
00
ENDCHAR

STARTCHAR Igrave
ENCODING 222
SWIDTH 571 0
DWIDTH 8 0
BBX 8 14 0 -2
BITMAP
30
18
00
3C
18
18
18
18
18
18
18
3C
00
00
ENDCHAR

STARTCHAR upblock
ENCODING 223
SWIDTH 571 0
DWIDTH 8 0
BBX 8 14 0 -2
BITMAP
FF
FF
FF
FF
FF
FF
FF
00
00
00
00
00
00
00
ENDCHAR

STARTCHAR Oacute
ENCODING 224
SWIDTH 571 0
DWIDTH 8 0
BBX 8 14 0 -2
BITMAP
0C
18
00
7C
C6
C6
C6
C6
C6
C6
C6
7C
00
00
ENDCHAR

STARTCHAR germandbls
ENCODING 225
SWIDTH 571 0
DWIDTH 8 0
BBX 8 14 0 -2
BITMAP
00
00
78
CC
CC
C8
FC
C6
C6
C6
E6
BC
00
00
ENDCHAR

STARTCHAR Ocircumflex
ENCODING 226
SWIDTH 571 0
DWIDTH 8 0
BBX 8 14 0 -2
BITMAP
38
6C
00
7C
C6
C6
C6
C6
C6
C6
C6
7C
00
00
ENDCHAR

STARTCHAR Ograve
ENCODING 227
SWIDTH 571 0
DWIDTH 8 0
BBX 8 14 0 -2
BITMAP
60
30
00
7C
C6
C6
C6
C6
C6
C6
C6
7C
00
00
ENDCHAR

STARTCHAR otilde
ENCODING 228
SWIDTH 571 0
DWIDTH 8 0
BBX 8 14 0 -2
BITMAP
00
00
76
DC
00
7C
C6
C6
C6
C6
C6
7C
00
00
ENDCHAR

STARTCHAR Otilde
ENCODING 229
SWIDTH 571 0
DWIDTH 8 0
BBX 8 14 0 -2
BITMAP
76
DC
00
7C
C6
C6
C6
C6
C6
C6
C6
7C
00
00
ENDCHAR

STARTCHAR mu
ENCODING 230
SWIDTH 571 0
DWIDTH 8 0
BBX 8 14 0 -2
BITMAP
00
00
00
00
00
C6
C6
C6
C6
C6
CE
F6
C0
C0
ENDCHAR

STARTCHAR thorn
ENCODING 231
SWIDTH 571 0
DWIDTH 8 0
BBX 8 14 0 -2
BITMAP
00
00
C0
C0
C0
FC
C6
C6
C6
C6
FC
C0
C0
C0
ENDCHAR

STARTCHAR Thorn
ENCODING 232
SWIDTH 571 0
DWIDTH 8 0
BBX 8 14 0 -2
BITMAP
00
00
C0
C0
FC
C6
C6
C6
C6
FC
C0
C0
00
00
ENDCHAR

STARTCHAR Uacute
ENCODING 233
SWIDTH 571 0
DWIDTH 8 0
BBX 8 14 0 -2
BITMAP
0C
18
C6
C6
C6
C6
C6
C6
C6
C6
C6
7C
00
00
ENDCHAR

STARTCHAR Ucircumflex
ENCODING 234
SWIDTH 571 0
DWIDTH 8 0
BBX 8 14 0 -2
BITMAP
38
6C
00
C6
C6
C6
C6
C6
C6
C6
C6
7C
00
00
ENDCHAR

STARTCHAR Ugrave
ENCODING 235
SWIDTH 571 0
DWIDTH 8 0
BBX 8 14 0 -2
BITMAP
60
30
C6
C6
C6
C6
C6
C6
C6
C6
C6
7C
00
00
ENDCHAR

STARTCHAR yacute
ENCODING 236
SWIDTH 571 0
DWIDTH 8 0
BBX 8 14 0 -2
BITMAP
00
00
0C
18
00
C6
C6
C6
C6
C6
C6
7E
06
7C
ENDCHAR

STARTCHAR Yacute
ENCODING 237
SWIDTH 571 0
DWIDTH 8 0
BBX 8 14 0 -2
BITMAP
0C
18
C3
C3
66
66
3C
18
18
18
18
18
00
00
ENDCHAR

STARTCHAR macron
ENCODING 238
SWIDTH 571 0
DWIDTH 8 0
BBX 8 14 0 -2
BITMAP
FE
00
00
00
00
00
00
00
00
00
00
00
00
00
ENDCHAR

STARTCHAR acute
ENCODING 239
SWIDTH 571 0
DWIDTH 8 0
BBX 8 14 0 -2
BITMAP
0C
18
00
00
00
00
00
00
00
00
00
00
00
00
ENDCHAR

STARTCHAR hyphen
ENCODING 240
SWIDTH 571 0
DWIDTH 8 0
BBX 8 14 0 -2
BITMAP
00
00
00
00
00
00
00
7C
00
00
00
00
00
00
ENDCHAR

STARTCHAR plusminus
ENCODING 241
SWIDTH 571 0
DWIDTH 8 0
BBX 8 14 0 -2
BITMAP
00
00
00
00
18
18
7E
18
18
00
00
7E
00
00
ENDCHAR

STARTCHAR underscoredbl
ENCODING 242
SWIDTH 571 0
DWIDTH 8 0
BBX 8 14 0 -2
BITMAP
00
00
00
00
00
00
00
00
00
00
00
FE
00
FE
ENDCHAR

STARTCHAR threequarters
ENCODING 243
SWIDTH 571 0
DWIDTH 8 0
BBX 8 14 0 -2
BITMAP
E0
30
62
36
EC
18
30
66
CE
9A
3E
06
06
00
ENDCHAR

STARTCHAR paragraph
ENCODING 244
SWIDTH 571 0
DWIDTH 8 0
BBX 8 14 0 -2
BITMAP
00
00
7E
D6
D6
D6
D6
76
16
16
16
16
00
00
ENDCHAR

STARTCHAR section
ENCODING 245
SWIDTH 571 0
DWIDTH 8 0
BBX 8 14 0 -2
BITMAP
00
3C
66
60
38
6C
66
66
36
1C
06
66
3C
00
ENDCHAR

STARTCHAR divide
ENCODING 246
SWIDTH 571 0
DWIDTH 8 0
BBX 8 14 0 -2
BITMAP
00
00
00
00
18
18
00
7E
00
18
18
00
00
00
ENDCHAR

STARTCHAR cedilla
ENCODING 247
SWIDTH 571 0
DWIDTH 8 0
BBX 8 14 0 -2
BITMAP
00
00
00
00
00
00
00
00
00
00
00
30
30
60
ENDCHAR

STARTCHAR degree
ENCODING 248
SWIDTH 571 0
DWIDTH 8 0
BBX 8 14 0 -2
BITMAP
00
38
6C
6C
38
00
00
00
00
00
00
00
00
00
ENDCHAR

STARTCHAR dieresis
ENCODING 249
SWIDTH 571 0
DWIDTH 8 0
BBX 8 14 0 -2
BITMAP
6C
6C
00
00
00
00
00
00
00
00
00
00
00
00
ENDCHAR

STARTCHAR periodcentered
ENCODING 250
SWIDTH 571 0
DWIDTH 8 0
BBX 8 14 0 -2
BITMAP
00
00
00
00
00
00
18
18
00
00
00
00
00
00
ENDCHAR

STARTCHAR onesuperior
ENCODING 251
SWIDTH 571 0
DWIDTH 8 0
BBX 8 14 0 -2
BITMAP
00
18
38
18
18
18
00
00
00
00
00
00
00
00
ENDCHAR

STARTCHAR threesuperior
ENCODING 252
SWIDTH 571 0
DWIDTH 8 0
BBX 8 14 0 -2
BITMAP
00
78
0C
38
0C
78
00
00
00
00
00
00
00
00
ENDCHAR

STARTCHAR twosuperior
ENCODING 253
SWIDTH 571 0
DWIDTH 8 0
BBX 8 14 0 -2
BITMAP
00
38
6C
18
30
7C
00
00
00
00
00
00
00
00
ENDCHAR

STARTCHAR filledbox
ENCODING 254
SWIDTH 571 0
DWIDTH 8 0
BBX 8 14 0 -2
BITMAP
00
00
00
00
7C
7C
7C
7C
7C
7C
00
00
00
00
ENDCHAR

STARTCHAR space
ENCODING 255
SWIDTH 571 0
DWIDTH 8 0
BBX 8 14 0 -2
BITMAP
00
00
00
00
00
00
00
00
00
00
00
00
00
00
ENDCHAR

ENDFONT
